<?xml version="1.0" standalone="no"?>
<!DOCTYPE svg PUBLIC "-//W3C//DTD SVG 20010904//EN"
 "http://www.w3.org/TR/2001/REC-SVG-20010904/DTD/svg10.dtd">
<svg version="1.0" xmlns="http://www.w3.org/2000/svg"
 width="48.000000pt" height="48.000000pt" viewBox="0 0 48.000000 48.000000"
 preserveAspectRatio="xMidYMid meet">
<metadata>
Created by potrace 1.16, written by Peter Selinger 2001-2019
</metadata>
<g transform="translate(0.000000,48.000000) scale(0.100000,-0.100000)"
fill="#000000" stroke="none">
<path d="M0 240 l0 -240 240 0 240 0 0 240 0 240 -240 0 -240 0 0 -240z m204
99 c36 -42 33 -72 -17 -159 -35 -61 -47 -76 -70 -78 -32 -4 -33 3 -7 46 25 40
25 52 2 52 -31 0 -66 46 -66 87 0 79 106 114 158 52z m211 5 c36 -39 32 -77
-17 -164 -35 -62 -48 -76 -70 -78 -34 -4 -34 -1 -2 54 l26 44 -23 0 c-64 0
-94 96 -44 145 35 36 97 35 130 -1z"/>
</g>
</svg>
