<?xml version="1.0" standalone="no"?>
<!DOCTYPE svg PUBLIC "-//W3C//DTD SVG 20010904//EN"
 "http://www.w3.org/TR/2001/REC-SVG-20010904/DTD/svg10.dtd">
<svg version="1.0" xmlns="http://www.w3.org/2000/svg"
 width="144.000000pt" height="144.000000pt" viewBox="0 0 144.000000 144.000000"
 preserveAspectRatio="xMidYMid meet">

<g transform="translate(0.000000,144.000000) scale(0.100000,-0.100000)"
fill="#000000" stroke="none">
<path d="M0 720 l0 -720 720 0 720 0 0 720 0 720 -720 0 -720 0 0 -720z m536
372 c53 -27 99 -73 126 -125 26 -52 35 -151 18 -203 -7 -21 -65 -132 -129
-246 l-116 -208 -89 0 c-104 0 -103 -15 -10 149 36 63 66 119 67 124 1 4 -22
10 -51 12 -134 10 -232 133 -219 274 10 116 92 213 202 242 52 14 156 4 201
-19z m633 4 c51 -27 101 -77 127 -127 19 -39 24 -63 24 -128 0 -72 -3 -86 -38
-152 -70 -137 -206 -371 -217 -375 -6 -3 -48 -4 -93 -2 l-81 3 74 130 c41 72
74 135 75 140 0 6 -21 10 -48 11 -91 1 -186 78 -212 170 -19 67 -8 163 25 219
29 51 95 103 153 122 48 16 170 10 211 -11z"/>
<path d="M373 959 c-47 -14 -83 -62 -83 -111 0 -101 104 -162 184 -109 39 26
55 57 56 108 0 62 -37 102 -110 118 -8 2 -29 -1 -47 -6z"/>
<path d="M1016 960 c-40 -12 -74 -48 -87 -90 -28 -94 81 -182 171 -137 34 17
70 74 70 110 0 45 -35 93 -80 111 -22 9 -41 16 -43 15 -1 0 -15 -5 -31 -9z"/>
</g>
</svg>
