<?xml version="1.0" standalone="no"?>
<!DOCTYPE svg PUBLIC "-//W3C//DTD SVG 20010904//EN"
 "http://www.w3.org/TR/2001/REC-SVG-20010904/DTD/svg10.dtd">
<svg version="1.0" xmlns="http://www.w3.org/2000/svg"
 width="512.000000pt" height="512.000000pt" viewBox="0 0 512.000000 512.000000"
 preserveAspectRatio="xMidYMid meet">
<metadata>
Created by potrace 1.16, written by Peter Selinger 2001-2019
</metadata>
<g transform="translate(0.000000,512.000000) scale(0.100000,-0.100000)"
fill="#000000" stroke="none">
<path d="M0 2560 l0 -2560 2560 0 2560 0 0 2560 0 2560 -2560 0 -2560 0 0
-2560z m1735 1401 c3 -5 29 -17 58 -27 48 -16 126 -51 187 -85 95 -53 239
-190 308 -294 122 -184 166 -332 166 -565 0 -117 -4 -161 -22 -226 -32 -119
-82 -232 -181 -409 -24 -44 -59 -107 -76 -140 -17 -33 -42 -78 -55 -100 -13
-22 -33 -58 -45 -80 -12 -22 -31 -56 -42 -75 -32 -54 -248 -432 -320 -560 -36
-63 -82 -146 -102 -185 -21 -38 -44 -80 -52 -92 l-14 -23 -317 0 c-369 0 -346
-9 -273 109 25 40 45 75 45 77 0 7 141 257 175 309 17 28 42 71 55 98 13 26
27 47 32 47 4 0 8 6 8 14 0 8 9 30 21 48 11 18 45 76 75 128 110 191 110 192
-26 184 -157 -11 -315 28 -448 109 -80 48 -81 49 -152 118 -147 144 -239 324
-271 529 -16 102 -6 275 21 380 19 73 108 274 128 290 4 3 20 25 37 50 88 133
316 300 464 340 22 6 47 17 53 25 11 12 62 14 285 15 156 0 274 -4 278 -9z
m2292 -12 c290 -128 421 -230 539 -419 44 -69 104 -199 104 -223 0 -8 9 -26
20 -40 19 -24 20 -40 20 -275 0 -209 -2 -251 -14 -255 -8 -3 -21 -28 -29 -55
-22 -73 -65 -166 -147 -317 -15 -27 -44 -81 -65 -120 -20 -38 -42 -77 -49 -85
-6 -8 -19 -31 -29 -50 -9 -19 -21 -42 -27 -50 -19 -31 -280 -490 -280 -494 0
-2 -21 -40 -46 -83 -26 -43 -61 -105 -79 -138 -18 -33 -48 -87 -67 -120 -19
-33 -41 -75 -49 -93 l-14 -32 -320 0 c-370 0 -349 -7 -285 101 35 58 134 230
183 319 11 19 36 64 57 100 21 36 77 135 125 220 49 85 99 172 112 193 13 21
23 48 21 60 -3 21 -7 22 -108 19 -286 -9 -496 93 -703 343 -64 78 -142 276
-168 429 -21 122 3 328 53 461 24 64 82 173 123 230 116 162 315 310 487 361
26 8 50 19 53 24 4 6 110 10 270 10 247 0 268 -1 312 -21z"/>
<path d="M1365 3419 c-38 -10 -72 -19 -75 -19 -14 0 -110 -68 -142 -100 -112
-109 -156 -289 -108 -433 22 -67 98 -179 138 -204 15 -10 29 -20 32 -24 3 -4
33 -21 68 -38 84 -42 200 -53 297 -26 35 9 69 23 76 31 6 8 17 14 23 14 18 0
111 86 150 138 38 53 76 170 76 237 0 189 -159 383 -345 423 -92 20 -120 20
-190 1z"/>
<path d="M3623 3420 c-73 -15 -136 -51 -204 -117 -139 -134 -176 -331 -93
-495 50 -99 187 -216 274 -233 170 -35 308 1 418 108 181 177 188 425 18 605
-109 115 -257 162 -413 132z"/>
</g>
</svg>
