<?xml version="1.0" standalone="no"?>
<!DOCTYPE svg PUBLIC "-//W3C//DTD SVG 20010904//EN"
 "http://www.w3.org/TR/2001/REC-SVG-20010904/DTD/svg10.dtd">
<svg version="1.0" xmlns="http://www.w3.org/2000/svg"
 width="36.000000pt" height="36.000000pt" viewBox="0 0 36.000000 36.000000"
 preserveAspectRatio="xMidYMid meet">
<metadata>
Created by potrace 1.16, written by Peter Selinger 2001-2019
</metadata>
<g transform="translate(0.000000,36.000000) scale(0.100000,-0.100000)"
fill="#000000" stroke="none">
<path d="M0 180 l0 -180 180 0 180 0 0 180 0 180 -180 0 -180 0 0 -180z m150
80 c11 -11 20 -32 20 -46 0 -39 -57 -134 -81 -134 -23 0 -24 8 -4 34 20 27 19
33 -10 40 -23 6 -45 39 -45 67 0 20 50 59 75 59 14 0 34 -9 45 -20z m157 -2
c13 -12 23 -32 23 -44 0 -36 -55 -129 -79 -132 -25 -4 -27 7 -6 34 19 25 19
34 0 34 -21 0 -55 36 -55 59 0 10 9 30 21 45 25 32 64 34 96 4z"/>
</g>
</svg>
