<?xml version="1.0" standalone="no"?>
<!DOCTYPE svg PUBLIC "-//W3C//DTD SVG 20010904//EN"
 "http://www.w3.org/TR/2001/REC-SVG-20010904/DTD/svg10.dtd">
<svg version="1.0" xmlns="http://www.w3.org/2000/svg"
 width="114.000000pt" height="114.000000pt" viewBox="0 0 114.000000 114.000000"
 preserveAspectRatio="xMidYMid meet">
<metadata>
Created by potrace 1.16, written by Peter Selinger 2001-2019
</metadata>
<g transform="translate(0.000000,114.000000) scale(0.100000,-0.100000)"
fill="#000000" stroke="none">
<path d="M0 570 l0 -570 570 0 570 0 0 570 0 570 -570 0 -570 0 0 -570z m457
274 c72 -59 107 -155 83 -231 -7 -21 -53 -111 -102 -200 l-90 -163 -74 0 -73
0 55 95 c74 128 73 125 32 125 -18 0 -54 10 -78 23 -114 57 -141 213 -55 314
52 61 86 74 182 71 74 -3 85 -6 120 -34z m489 10 c47 -32 59 -47 84 -99 43
-88 28 -142 -103 -370 l-74 -130 -71 -3 c-40 -2 -72 -1 -72 2 0 2 27 51 60
108 l59 103 -50 6 c-100 13 -161 82 -167 188 -5 85 23 142 92 189 44 29 55 32
126 32 67 0 82 -3 116 -26z"/>
<path d="M257 732 c-58 -60 -15 -162 68 -162 51 0 95 44 95 95 0 84 -105 127
-163 67z"/>
<path d="M759 731 c-85 -85 38 -213 129 -136 39 32 48 74 28 114 -32 60 -108
71 -157 22z"/>
</g>
</svg>
