<?xml version="1.0" standalone="no"?>
<!DOCTYPE svg PUBLIC "-//W3C//DTD SVG 20010904//EN"
 "http://www.w3.org/TR/2001/REC-SVG-20010904/DTD/svg10.dtd">
<svg version="1.0" xmlns="http://www.w3.org/2000/svg"
 width="57.000000pt" height="57.000000pt" viewBox="0 0 57.000000 57.000000"
 preserveAspectRatio="xMidYMid meet">
<metadata>
Created by potrace 1.16, written by Peter Selinger 2001-2019
</metadata>
<g transform="translate(0.000000,57.000000) scale(0.100000,-0.100000)"
fill="#000000" stroke="none">
<path d="M0 285 l0 -285 285 0 285 0 0 285 0 285 -285 0 -285 0 0 -285z m239
124 c47 -47 43 -90 -20 -200 -45 -80 -53 -89 -80 -89 -35 0 -36 12 -4 65 30
49 31 55 4 55 -32 0 -57 18 -75 52 -36 69 18 148 101 148 35 0 49 -6 74 -31z
m252 2 c45 -45 40 -95 -19 -201 -43 -77 -51 -85 -80 -88 -17 -2 -32 -1 -32 3
0 3 11 28 25 55 30 60 30 60 4 60 -57 0 -99 66 -79 126 26 77 124 101 181 45z"/>
</g>
</svg>
