<?xml version="1.0" standalone="no"?>
<!DOCTYPE svg PUBLIC "-//W3C//DTD SVG 20010904//EN"
 "http://www.w3.org/TR/2001/REC-SVG-20010904/DTD/svg10.dtd">
<svg version="1.0" xmlns="http://www.w3.org/2000/svg"
 width="72.000000pt" height="72.000000pt" viewBox="0 0 72.000000 72.000000"
 preserveAspectRatio="xMidYMid meet">
<metadata>
Created by potrace 1.16, written by Peter Selinger 2001-2019
</metadata>
<g transform="translate(0.000000,72.000000) scale(0.100000,-0.100000)"
fill="#000000" stroke="none">
<path d="M0 360 l0 -360 360 0 360 0 0 360 0 360 -360 0 -360 0 0 -360z m277
180 c18 -10 40 -34 49 -52 30 -58 22 -98 -44 -215 l-60 -108 -47 -3 -47 -3 36
64 c20 35 36 67 36 70 0 4 -14 7 -31 7 -22 0 -41 10 -65 34 -29 29 -34 41 -34
80 0 87 55 146 135 146 22 0 54 -9 72 -20z m308 6 c45 -19 75 -69 75 -125 0
-36 -12 -65 -61 -153 l-61 -108 -45 0 -45 0 36 64 c20 35 36 67 36 70 0 3 -13
6 -29 6 -67 0 -121 84 -102 158 23 84 110 123 196 88z"/>
</g>
</svg>
