<?xml version="1.0" standalone="no"?>
<!DOCTYPE svg PUBLIC "-//W3C//DTD SVG 20010904//EN"
 "http://www.w3.org/TR/2001/REC-SVG-20010904/DTD/svg10.dtd">
<svg version="1.0" xmlns="http://www.w3.org/2000/svg"
 width="120.000000pt" height="120.000000pt" viewBox="0 0 120.000000 120.000000"
 preserveAspectRatio="xMidYMid meet">
<metadata>
Created by potrace 1.16, written by Peter Selinger 2001-2019
</metadata>
<g transform="translate(0.000000,120.000000) scale(0.100000,-0.100000)"
fill="#000000" stroke="none">
<path d="M0 600 l0 -600 600 0 600 0 0 600 0 600 -600 0 -600 0 0 -600z m447
309 c110 -53 159 -194 106 -304 -8 -16 -54 -101 -101 -187 l-87 -158 -78 0
-79 0 20 33 c40 65 112 194 112 199 0 3 -20 5 -44 5 -146 3 -232 173 -158 314
40 77 111 119 201 119 45 0 78 -6 108 -21z m551 -12 c67 -44 96 -97 100 -182
5 -82 11 -67 -116 -297 l-87 -158 -78 0 -79 0 20 33 c40 65 112 194 112 199 0
3 -20 5 -44 5 -50 1 -90 19 -128 60 -96 100 -70 267 52 341 51 31 60 33 131
30 62 -2 83 -8 117 -31z"/>
<path d="M269 771 c-66 -66 -15 -171 82 -171 48 0 89 47 89 103 0 38 -5 49
-31 71 -44 37 -101 36 -140 -3z"/>
<path d="M799 771 c-42 -42 -40 -92 5 -137 58 -58 140 -38 166 40 32 97 -97
170 -171 97z"/>
</g>
</svg>
