<?xml version="1.0" standalone="no"?>
<!DOCTYPE svg PUBLIC "-//W3C//DTD SVG 20010904//EN"
 "http://www.w3.org/TR/2001/REC-SVG-20010904/DTD/svg10.dtd">
<svg version="1.0" xmlns="http://www.w3.org/2000/svg"
 width="76.000000pt" height="76.000000pt" viewBox="0 0 76.000000 76.000000"
 preserveAspectRatio="xMidYMid meet">
<metadata>
Created by potrace 1.16, written by Peter Selinger 2001-2019
</metadata>
<g transform="translate(0.000000,76.000000) scale(0.100000,-0.100000)"
fill="#000000" stroke="none">
<path d="M0 380 l0 -380 380 0 380 0 0 380 0 380 -380 0 -380 0 0 -380z m286
194 c46 -22 74 -70 74 -129 0 -40 -10 -66 -66 -166 l-66 -119 -44 0 c-24 0
-44 3 -44 7 0 3 16 34 35 69 19 34 35 65 35 67 0 3 -15 9 -32 13 -47 10 -74
30 -92 69 -60 125 72 250 200 189z m342 -4 c18 -11 41 -34 53 -52 34 -55 22
-108 -52 -240 -60 -105 -67 -113 -98 -116 -61 -6 -64 1 -21 75 l40 67 -41 12
c-99 30 -134 129 -75 219 35 53 135 71 194 35z"/>
</g>
</svg>
