<?xml version="1.0" standalone="no"?>
<!DOCTYPE svg PUBLIC "-//W3C//DTD SVG 20010904//EN"
 "http://www.w3.org/TR/2001/REC-SVG-20010904/DTD/svg10.dtd">
<svg version="1.0" xmlns="http://www.w3.org/2000/svg"
 width="60.000000pt" height="60.000000pt" viewBox="0 0 60.000000 60.000000"
 preserveAspectRatio="xMidYMid meet">
<metadata>
Created by potrace 1.16, written by Peter Selinger 2001-2019
</metadata>
<g transform="translate(0.000000,60.000000) scale(0.100000,-0.100000)"
fill="#000000" stroke="none">
<path d="M0 300 l0 -300 300 0 300 0 0 300 0 300 -300 0 -300 0 0 -300z m250
131 c55 -55 51 -93 -29 -229 -39 -67 -44 -72 -76 -72 -19 0 -35 2 -35 5 0 2
14 27 30 55 17 28 30 53 30 55 0 3 -11 5 -24 5 -84 0 -119 128 -51 188 40 34
117 31 155 -7z m256 11 c59 -48 58 -99 -7 -218 -50 -94 -51 -94 -89 -94 l-38
0 29 53 c34 62 35 67 8 67 -31 0 -57 17 -74 50 -24 46 -19 85 16 125 28 32 36
35 83 35 33 0 58 -6 72 -18z"/>
</g>
</svg>
