<?xml version="1.0" standalone="no"?>
<!DOCTYPE svg PUBLIC "-//W3C//DTD SVG 20010904//EN"
 "http://www.w3.org/TR/2001/REC-SVG-20010904/DTD/svg10.dtd">
<svg version="1.0" xmlns="http://www.w3.org/2000/svg"
 width="152.000000pt" height="152.000000pt" viewBox="0 0 152.000000 152.000000"
 preserveAspectRatio="xMidYMid meet">
<metadata>
Created by potrace 1.16, written by Peter Selinger 2001-2019
</metadata>
<g transform="translate(0.000000,152.000000) scale(0.100000,-0.100000)"
fill="#000000" stroke="none">
<path d="M0 760 l0 -760 760 0 760 0 0 760 0 760 -760 0 -760 0 0 -760z m568
389 c95 -47 148 -125 159 -233 8 -81 -15 -141 -145 -371 l-119 -210 -98 -3
c-53 -1 -95 1 -93 5 1 4 38 69 81 144 42 75 77 139 77 143 0 3 -23 6 -52 6
-94 0 -177 60 -221 159 -28 64 -21 181 15 242 59 100 143 148 259 149 65 0 85
-4 137 -31z m632 20 c65 -20 131 -78 167 -148 28 -53 33 -73 33 -131 0 -77
-16 -113 -180 -407 l-85 -152 -98 -1 -98 0 32 58 c18 31 54 95 81 141 26 46
48 88 48 92 0 5 -23 9 -50 9 -217 0 -317 278 -164 459 65 77 205 113 314 80z"/>
<path d="M390 1013 c-25 -9 -68 -54 -80 -84 -30 -73 37 -169 118 -169 105 0
166 109 112 198 -29 47 -100 73 -150 55z"/>
<path d="M1055 1006 c-89 -40 -105 -144 -34 -212 26 -25 38 -29 84 -29 46 0
58 4 85 30 45 43 57 93 34 141 -34 68 -107 99 -169 70z"/>
</g>
</svg>
