<?xml version="1.0" standalone="no"?>
<!DOCTYPE svg PUBLIC "-//W3C//DTD SVG 20010904//EN"
 "http://www.w3.org/TR/2001/REC-SVG-20010904/DTD/svg10.dtd">
<svg version="1.0" xmlns="http://www.w3.org/2000/svg"
 width="192.000000pt" height="192.000000pt" viewBox="0 0 192.000000 192.000000"
 preserveAspectRatio="xMidYMid meet">
<metadata>
Created by potrace 1.16, written by Peter Selinger 2001-2019
</metadata>
<g transform="translate(0.000000,192.000000) scale(0.100000,-0.100000)"
fill="#000000" stroke="none">
<path d="M0 960 l0 -960 960 0 960 0 0 960 0 960 -960 0 -960 0 0 -960z m703
502 c76 -35 146 -103 184 -180 25 -51 28 -68 28 -157 0 -121 6 -107 -191 -456
l-147 -259 -119 0 c-98 0 -119 3 -115 14 3 7 49 89 101 181 53 93 96 173 96
179 0 7 -26 11 -68 12 -48 0 -79 7 -110 23 -206 106 -252 378 -94 553 77 85
151 116 280 117 81 1 100 -2 155 -27z m851 -2 c76 -36 147 -109 183 -186 22
-50 24 -64 21 -162 -3 -104 -4 -109 -47 -192 -24 -47 -88 -162 -142 -256 -53
-95 -107 -190 -118 -213 l-21 -41 -121 0 c-91 0 -120 3 -117 13 2 6 47 90 102
185 54 95 96 175 93 178 -2 3 -34 7 -69 8 -175 9 -312 177 -295 363 9 94 48
173 118 238 79 72 137 94 258 94 83 1 100 -2 155 -29z"/>
<path d="M484 1271 c-126 -57 -134 -223 -13 -290 120 -68 269 49 235 184 -10
40 -73 103 -114 115 -50 13 -60 13 -108 -9z"/>
<path d="M1346 1280 c-59 -18 -116 -95 -116 -157 0 -48 39 -111 84 -138 153
-90 322 101 209 236 -29 34 -95 69 -128 68 -11 0 -33 -5 -49 -9z"/>
</g>
</svg>
