<?xml version="1.0" standalone="no"?>
<!DOCTYPE svg PUBLIC "-//W3C//DTD SVG 20010904//EN"
 "http://www.w3.org/TR/2001/REC-SVG-20010904/DTD/svg10.dtd">
<svg version="1.0" xmlns="http://www.w3.org/2000/svg"
 width="180.000000pt" height="180.000000pt" viewBox="0 0 180.000000 180.000000"
 preserveAspectRatio="xMidYMid meet">
<metadata>
Created by potrace 1.16, written by Peter Selinger 2001-2019
</metadata>
<g transform="translate(0.000000,180.000000) scale(0.100000,-0.100000)"
fill="#000000" stroke="none">
<path d="M0 900 l0 -900 900 0 900 0 0 900 0 900 -900 0 -900 0 0 -900z m681
459 c67 -36 117 -88 151 -158 19 -39 23 -62 23 -147 0 -119 3 -111 -195 -461
l-115 -203 -112 0 c-62 0 -113 2 -113 4 0 2 43 79 95 171 53 92 93 170 90 173
-3 4 -22 5 -40 3 -61 -5 -138 25 -193 74 -149 134 -146 360 6 497 78 70 138
89 260 83 69 -3 92 -9 143 -36z m772 13 c61 -27 137 -99 167 -159 21 -40 26
-66 28 -149 4 -98 3 -104 -31 -175 -19 -41 -89 -168 -155 -284 l-119 -210
-112 -3 c-61 -1 -111 1 -111 6 0 5 41 80 90 166 50 87 90 163 90 170 0 7 -22
11 -58 11 -260 2 -380 357 -186 552 46 45 102 78 161 93 59 15 184 5 236 -18z"/>
<path d="M475 1203 c-32 -8 -84 -52 -101 -85 -21 -40 -14 -115 12 -151 48 -65
144 -86 204 -44 76 51 97 122 58 197 -32 63 -109 100 -173 83z"/>
<path d="M1263 1199 c-44 -13 -90 -62 -104 -111 -8 -33 -8 -49 5 -83 38 -97
133 -132 221 -80 107 62 99 205 -15 263 -48 24 -58 25 -107 11z"/>
</g>
</svg>
