<?xml version="1.0" standalone="no"?>
<!DOCTYPE svg PUBLIC "-//W3C//DTD SVG 20010904//EN"
 "http://www.w3.org/TR/2001/REC-SVG-20010904/DTD/svg10.dtd">
<svg version="1.0" xmlns="http://www.w3.org/2000/svg"
 width="96.000000pt" height="96.000000pt" viewBox="0 0 96.000000 96.000000"
 preserveAspectRatio="xMidYMid meet">
<metadata>
Created by potrace 1.16, written by Peter Selinger 2001-2019
</metadata>
<g transform="translate(0.000000,96.000000) scale(0.100000,-0.100000)"
fill="#000000" stroke="none">
<path d="M0 480 l0 -480 480 0 480 0 0 480 0 480 -480 0 -480 0 0 -480z m358
246 c87 -46 124 -144 87 -233 -27 -63 -148 -275 -160 -280 -7 -2 -35 -3 -62
-1 l-51 3 49 85 c27 47 49 88 49 93 0 4 -16 7 -36 7 -149 0 -197 226 -67 315
31 20 50 25 101 25 35 0 75 -6 90 -14z m449 -15 c50 -36 73 -84 73 -153 0 -48
-8 -68 -82 -201 l-81 -147 -59 0 c-32 0 -58 2 -58 5 0 3 20 41 45 84 25 43 45
83 45 89 0 7 -14 12 -30 12 -98 0 -173 115 -140 214 28 85 86 126 181 126 57
0 71 -4 106 -29z"/>
<path d="M215 615 c-36 -35 -29 -89 14 -122 39 -30 112 0 125 52 19 76 -83
127 -139 70z"/>
<path d="M642 617 c-32 -34 -30 -89 4 -116 81 -64 182 42 109 114 -32 33 -83
34 -113 2z"/>
</g>
</svg>
