<?xml version="1.0" standalone="no"?>
<!DOCTYPE svg PUBLIC "-//W3C//DTD SVG 20010904//EN"
 "http://www.w3.org/TR/2001/REC-SVG-20010904/DTD/svg10.dtd">
<svg version="1.0" xmlns="http://www.w3.org/2000/svg"
 width="70.000000pt" height="70.000000pt" viewBox="0 0 70.000000 70.000000"
 preserveAspectRatio="xMidYMid meet">
<metadata>
Created by potrace 1.16, written by Peter Selinger 2001-2019
</metadata>
<g transform="translate(0.000000,70.000000) scale(0.100000,-0.100000)"
fill="#000000" stroke="none">
<path d="M0 350 l0 -350 350 0 350 0 0 350 0 350 -350 0 -350 0 0 -350z m270
175 c36 -19 63 -67 63 -115 0 -37 -18 -78 -85 -192 -38 -66 -40 -68 -78 -68
-22 0 -40 3 -40 6 0 3 16 35 36 70 l36 64 -30 0 c-39 0 -87 40 -102 84 -18 56
8 123 59 151 34 19 105 19 141 0z m314 -4 c40 -27 55 -57 56 -111 0 -37 -11
-64 -60 -153 l-61 -107 -39 0 c-22 0 -40 3 -40 7 0 3 16 35 35 70 l36 63 -32
0 c-41 0 -95 53 -104 102 -9 47 17 104 59 129 41 25 112 25 150 0z"/>
</g>
</svg>
