<?xml version="1.0" standalone="no"?>
<!DOCTYPE svg PUBLIC "-//W3C//DTD SVG 20010904//EN"
 "http://www.w3.org/TR/2001/REC-SVG-20010904/DTD/svg10.dtd">
<svg version="1.0" xmlns="http://www.w3.org/2000/svg"
 width="310.000000pt" height="310.000000pt" viewBox="0 0 310.000000 310.000000"
 preserveAspectRatio="xMidYMid meet">
<metadata>
Created by potrace 1.16, written by Peter Selinger 2001-2019
</metadata>
<g transform="translate(0.000000,310.000000) scale(0.100000,-0.100000)"
fill="#000000" stroke="none">
<path d="M0 1550 l0 -1550 1550 0 1550 0 0 1550 0 1550 -1550 0 -1550 0 0
-1550z m1154 802 c290 -144 411 -477 283 -779 -34 -79 -59 -125 -279 -513 -80
-140 -162 -285 -182 -322 l-38 -68 -194 0 c-107 0 -194 3 -194 6 0 7 261 471
295 525 46 71 43 73 -77 80 -95 5 -115 10 -184 43 -142 67 -249 202 -290 366
-22 86 -15 231 15 318 42 121 158 267 254 319 130 71 139 72 328 70 l176 -2
87 -43z m1369 0 c149 -74 257 -202 312 -369 13 -42 16 -81 13 -185 -3 -118 -6
-141 -30 -198 -34 -81 -103 -210 -242 -455 -60 -104 -144 -254 -188 -333 l-80
-142 -194 0 c-107 0 -194 4 -194 9 0 5 29 58 63 117 116 199 256 449 259 464
2 12 -16 16 -102 21 -93 5 -114 10 -183 42 -228 106 -353 376 -292 634 44 186
191 352 370 420 55 21 74 22 231 20 l171 -2 86 -43z"/>
<path d="M814 2069 c-55 -16 -127 -72 -158 -123 -23 -37 -31 -63 -34 -112 -7
-109 39 -194 137 -252 40 -23 57 -27 127 -27 78 0 84 2 137 38 151 104 169
274 43 403 -71 72 -163 99 -252 73z"/>
<path d="M2184 2069 c-18 -5 -53 -24 -80 -41 -131 -89 -153 -272 -46 -390 131
-145 357 -104 438 78 44 101 24 196 -61 281 -72 72 -163 98 -251 72z"/>
</g>
</svg>
