<?xml version="1.0" standalone="no"?>
<!DOCTYPE svg PUBLIC "-//W3C//DTD SVG 20010904//EN"
 "http://www.w3.org/TR/2001/REC-SVG-20010904/DTD/svg10.dtd">
<svg version="1.0" xmlns="http://www.w3.org/2000/svg"
 width="150.000000pt" height="150.000000pt" viewBox="0 0 150.000000 150.000000"
 preserveAspectRatio="xMidYMid meet">
<metadata>
Created by potrace 1.16, written by Peter Selinger 2001-2019
</metadata>
<g transform="translate(0.000000,150.000000) scale(0.100000,-0.100000)"
fill="#000000" stroke="none">
<path d="M0 750 l0 -750 750 0 750 0 0 750 0 750 -750 0 -750 0 0 -750z m557
389 c23 -11 63 -43 88 -71 81 -91 97 -216 40 -329 -26 -51 -192 -349 -222
-397 -12 -20 -21 -22 -103 -22 -50 0 -90 4 -90 9 0 4 34 68 75 140 41 73 75
137 75 142 0 5 -21 9 -47 9 -65 1 -121 28 -169 83 -48 54 -64 102 -64 189 0
108 62 203 164 249 60 27 195 26 253 -2z m649 6 c62 -26 111 -73 143 -137 26
-50 31 -73 31 -129 0 -37 -5 -81 -12 -96 -6 -15 -66 -126 -132 -245 l-121
-218 -94 0 c-77 0 -92 2 -88 15 4 8 40 73 82 145 41 73 75 134 75 136 0 2 -22
4 -49 4 -87 0 -159 45 -209 129 -24 40 -27 56 -27 131 0 75 3 91 29 138 31 56
82 102 138 127 45 19 188 20 234 0z"/>
<path d="M375 990 c-125 -62 -81 -240 59 -240 46 0 102 48 117 100 10 32 9 44
-7 76 -36 72 -103 97 -169 64z"/>
<path d="M1053 999 c-36 -10 -80 -58 -90 -97 -10 -40 17 -103 56 -129 65 -44
157 -18 187 52 19 46 18 74 -6 112 -33 55 -88 78 -147 62z"/>
</g>
</svg>
