<?xml version="1.0" encoding="UTF-8"?>
<svg xmlns="http://www.w3.org/2000/svg" xmlns:xlink="http://www.w3.org/1999/xlink" width="30px" height="30px" viewBox="0 0 30 30" version="1.1">
<g id="surface1">
<path style=" stroke:none;fill-rule:nonzero;fill:rgb(76.078431%,83.529412%,84.705882%);fill-opacity:1;" d="M 30 15 C 30 23.285156 23.285156 30 15 30 C 6.714844 30 0 23.285156 0 15 C 0 6.714844 6.714844 0 15 0 C 23.285156 0 30 6.714844 30 15 Z M 30 15 "/>
<path style=" stroke:none;fill-rule:nonzero;fill:rgb(71.764706%,78.823529%,80%);fill-opacity:1;" d="M 27.199219 23.726562 C 27.191406 23.707031 27.183594 23.6875 27.175781 23.671875 C 27.160156 23.628906 27.144531 23.589844 27.128906 23.550781 C 27.113281 23.511719 27.097656 23.46875 27.078125 23.429688 C 27.0625 23.390625 27.046875 23.351562 27.03125 23.3125 C 27.015625 23.269531 27 23.230469 26.980469 23.191406 C 26.96875 23.148438 26.953125 23.109375 26.933594 23.070312 C 26.917969 23.03125 26.902344 22.988281 26.882812 22.949219 C 26.871094 22.910156 26.855469 22.871094 26.835938 22.832031 C 26.820312 22.789062 26.804688 22.75 26.789062 22.710938 C 26.773438 22.667969 26.757812 22.628906 26.738281 22.589844 C 26.726562 22.550781 26.710938 22.507812 26.691406 22.46875 C 26.675781 22.429688 26.660156 22.390625 26.644531 22.351562 C 26.628906 22.308594 26.613281 22.269531 26.59375 22.230469 C 26.578125 22.1875 26.5625 22.148438 26.546875 22.109375 C 26.53125 22.070312 26.515625 22.027344 26.496094 21.988281 C 26.480469 21.949219 26.46875 21.910156 26.449219 21.871094 C 26.433594 21.828125 26.417969 21.789062 26.398438 21.75 C 26.386719 21.707031 26.371094 21.667969 26.351562 21.628906 C 26.335938 21.589844 26.320312 21.546875 26.304688 21.507812 C 26.289062 21.46875 26.273438 21.429688 26.253906 21.390625 C 26.238281 21.347656 26.222656 21.308594 26.207031 21.269531 C 26.191406 21.226562 26.175781 21.1875 26.15625 21.148438 C 26.144531 21.109375 26.128906 21.066406 26.109375 21.027344 C 26.09375 20.988281 26.078125 20.949219 26.058594 20.910156 C 26.046875 20.867188 26.03125 20.828125 26.011719 20.789062 C 25.996094 20.746094 25.980469 20.707031 25.964844 20.667969 C 25.949219 20.628906 25.933594 20.589844 25.914062 20.550781 C 25.902344 20.507812 25.886719 20.46875 25.867188 20.429688 C 25.851562 20.386719 25.835938 20.347656 25.816406 20.308594 C 25.804688 20.265625 25.789062 20.226562 25.769531 20.1875 C 25.753906 20.148438 25.738281 20.105469 25.722656 20.066406 C 25.707031 20.027344 25.691406 19.988281 25.671875 19.949219 C 25.65625 19.90625 25.640625 19.867188 25.625 19.828125 C 25.609375 19.785156 25.59375 19.746094 25.574219 19.707031 C 25.5625 19.667969 25.546875 19.625 25.527344 19.585938 C 25.511719 19.546875 25.496094 19.507812 25.476562 19.46875 C 25.464844 19.425781 25.449219 19.386719 25.429688 19.347656 C 25.414062 19.304688 25.398438 19.265625 25.382812 19.226562 C 25.367188 19.1875 25.351562 19.144531 25.332031 19.105469 C 25.320312 19.066406 25.304688 19.027344 25.285156 18.988281 C 25.269531 18.945312 25.253906 18.90625 25.234375 18.867188 C 25.222656 18.824219 25.207031 18.785156 25.1875 18.746094 C 25.171875 18.707031 25.15625 18.667969 25.140625 18.628906 C 25.125 18.585938 25.109375 18.546875 25.089844 18.507812 C 25.074219 18.464844 25.0625 18.425781 25.042969 18.386719 C 25.027344 18.34375 25.011719 18.304688 24.992188 18.265625 C 24.980469 18.226562 24.964844 18.183594 24.945312 18.144531 C 24.929688 18.105469 24.914062 18.066406 24.898438 18.027344 C 24.882812 17.984375 24.867188 17.945312 24.847656 17.90625 C 24.832031 17.863281 24.816406 17.824219 24.800781 17.785156 C 24.785156 17.746094 24.769531 17.703125 24.75 17.664062 C 24.738281 17.625 24.722656 17.585938 24.703125 17.546875 C 24.6875 17.503906 24.671875 17.464844 24.652344 17.425781 C 24.640625 17.382812 24.625 17.34375 24.605469 17.304688 C 24.589844 17.265625 24.574219 17.222656 24.558594 17.183594 C 24.542969 17.144531 24.527344 17.105469 24.507812 17.066406 C 24.492188 17.023438 24.480469 16.984375 24.460938 16.945312 C 24.445312 16.902344 24.429688 16.863281 24.410156 16.828125 C 24.398438 16.785156 24.382812 16.746094 24.363281 16.703125 C 24.347656 16.664062 24.332031 16.625 24.316406 16.585938 C 24.300781 16.542969 24.285156 16.503906 24.265625 16.464844 C 24.25 16.421875 24.234375 16.382812 24.21875 16.34375 C 24.203125 16.304688 24.1875 16.265625 24.167969 16.226562 C 24.15625 16.183594 24.140625 16.144531 24.121094 16.105469 C 24.105469 16.0625 24.089844 16.023438 24.070312 15.984375 C 24.058594 15.945312 24.042969 15.902344 24.023438 15.863281 C 24.007812 15.824219 23.992188 15.78125 23.976562 15.742188 C 23.960938 15.703125 23.945312 15.664062 23.925781 15.625 C 23.914062 15.582031 23.898438 15.542969 23.878906 15.503906 C 23.863281 15.460938 23.847656 15.421875 23.828125 15.382812 C 23.816406 15.34375 23.800781 15.300781 23.78125 15.261719 C 23.765625 15.222656 23.75 15.183594 23.734375 15.144531 C 23.71875 15.101562 23.703125 15.0625 23.683594 15.023438 C 23.671875 14.984375 23.65625 14.941406 23.636719 14.902344 C 23.621094 14.863281 23.605469 14.824219 23.585938 14.785156 C 23.574219 14.742188 23.558594 14.703125 23.539062 14.664062 C 23.523438 14.621094 23.507812 14.582031 23.492188 14.542969 C 23.476562 14.503906 23.460938 14.460938 23.441406 14.421875 C 23.425781 14.382812 23.410156 14.34375 23.394531 14.304688 C 23.378906 14.261719 23.363281 14.222656 23.34375 14.183594 C 23.332031 14.140625 23.316406 14.101562 23.296875 14.0625 C 23.28125 14.023438 23.265625 13.980469 23.246094 13.945312 C 23.234375 13.902344 23.21875 13.863281 23.199219 13.824219 C 23.183594 13.78125 23.167969 13.742188 23.152344 13.703125 C 23.136719 13.664062 23.121094 13.621094 23.101562 13.582031 C 23.085938 13.542969 23.074219 13.503906 23.054688 13.464844 C 23.039062 13.421875 23.023438 13.382812 23.003906 13.34375 C 22.992188 13.300781 22.976562 13.261719 22.957031 13.222656 C 22.941406 13.183594 22.925781 13.140625 22.910156 13.101562 C 22.894531 13.0625 22.878906 13.023438 22.859375 12.984375 C 22.84375 12.941406 22.828125 12.902344 22.8125 12.863281 C 22.796875 12.820312 22.78125 12.78125 22.761719 12.742188 C 22.75 12.703125 22.734375 12.660156 22.714844 12.625 C 22.699219 12.582031 22.683594 12.542969 22.664062 12.503906 C 22.503906 12.046875 22.074219 11.71875 21.5625 11.71875 C 21.242188 11.71875 20.957031 11.847656 20.746094 12.054688 C 20.738281 12.007812 20.726562 11.96875 20.695312 11.933594 C 20.691406 11.890625 20.675781 11.847656 20.648438 11.8125 C 20.640625 11.769531 20.628906 11.726562 20.597656 11.691406 C 20.59375 11.648438 20.578125 11.609375 20.550781 11.574219 C 20.546875 11.527344 20.53125 11.488281 20.503906 11.453125 C 20.496094 11.410156 20.480469 11.367188 20.453125 11.332031 C 20.449219 11.289062 20.433594 11.246094 20.40625 11.214844 C 20.398438 11.167969 20.386719 11.128906 20.355469 11.09375 C 20.351562 11.050781 20.335938 11.007812 20.308594 10.972656 C 20.304688 10.929688 20.289062 10.886719 20.261719 10.851562 C 20.253906 10.808594 20.238281 10.765625 20.210938 10.734375 C 20.207031 10.6875 20.191406 10.648438 20.164062 10.613281 C 20.15625 10.570312 20.144531 10.527344 20.113281 10.492188 C 20.109375 10.449219 20.09375 10.40625 20.066406 10.371094 C 20.0625 10.328125 20.046875 10.289062 20.015625 10.253906 C 20.011719 10.207031 19.996094 10.167969 19.96875 10.132812 C 19.964844 10.089844 19.949219 10.046875 19.921875 10.011719 C 19.914062 9.96875 19.902344 9.925781 19.871094 9.894531 C 19.867188 9.847656 19.851562 9.808594 19.824219 9.773438 C 19.816406 9.730469 19.804688 9.6875 19.773438 9.652344 C 19.769531 9.609375 19.753906 9.566406 19.726562 9.53125 C 19.722656 9.488281 19.707031 9.445312 19.679688 9.414062 C 19.671875 9.367188 19.65625 9.328125 19.628906 9.292969 C 19.625 9.25 19.609375 9.207031 19.582031 9.171875 C 19.574219 9.128906 19.5625 9.085938 19.53125 9.050781 C 19.527344 9.007812 19.511719 8.96875 19.484375 8.933594 C 19.476562 8.890625 19.464844 8.847656 19.433594 8.8125 C 19.429688 8.769531 19.414062 8.726562 19.386719 8.691406 C 19.382812 8.648438 19.367188 8.605469 19.339844 8.574219 C 19.332031 8.527344 19.320312 8.488281 19.289062 8.453125 C 19.285156 8.410156 19.269531 8.367188 19.242188 8.332031 C 19.234375 8.289062 19.222656 8.246094 19.191406 8.210938 C 19.1875 8.167969 19.171875 8.125 19.144531 8.09375 C 19.140625 8.046875 19.125 8.007812 19.097656 7.972656 C 19.089844 7.929688 19.074219 7.886719 19.046875 7.851562 C 19.042969 7.808594 19.027344 7.765625 19 7.730469 C 18.992188 7.6875 18.980469 7.648438 18.949219 7.613281 C 18.945312 7.570312 18.929688 7.527344 18.902344 7.492188 C 18.898438 7.449219 18.882812 7.40625 18.855469 7.371094 C 18.847656 7.328125 18.832031 7.285156 18.804688 7.253906 C 18.800781 7.207031 18.785156 7.167969 18.757812 7.132812 C 18.75 7.089844 18.738281 7.046875 18.707031 7.011719 C 18.703125 6.96875 18.6875 6.925781 18.660156 6.890625 C 18.652344 6.847656 18.640625 6.808594 18.609375 6.773438 C 18.605469 6.726562 18.589844 6.6875 18.5625 6.652344 C 18.558594 6.609375 18.542969 6.566406 18.515625 6.53125 C 18.507812 6.488281 18.496094 6.445312 18.464844 6.410156 C 18.460938 6.367188 18.445312 6.328125 18.417969 6.292969 C 18.410156 6.25 18.398438 6.207031 18.367188 6.171875 C 18.363281 6.128906 18.347656 6.085938 18.320312 6.050781 C 18.3125 5.980469 18.273438 5.914062 18.203125 5.875 C 18.089844 5.8125 17.949219 5.855469 17.886719 5.96875 L 17.257812 7.117188 C 16.582031 6.761719 15.816406 6.5625 15 6.5625 C 14.183594 6.5625 13.417969 6.761719 12.742188 7.113281 L 12.113281 5.964844 C 12.050781 5.851562 11.910156 5.8125 11.796875 5.875 C 11.683594 5.9375 11.640625 6.078125 11.703125 6.191406 L 11.730469 6.238281 C 11.734375 6.265625 11.738281 6.289062 11.753906 6.3125 L 11.777344 6.359375 C 11.78125 6.382812 11.789062 6.410156 11.800781 6.433594 L 11.828125 6.480469 C 11.832031 6.503906 11.835938 6.527344 11.847656 6.550781 L 11.875 6.601562 C 11.878906 6.625 11.886719 6.648438 11.898438 6.671875 L 11.921875 6.71875 C 11.929688 6.746094 11.933594 6.769531 11.945312 6.792969 L 11.972656 6.839844 C 11.976562 6.863281 11.980469 6.890625 11.996094 6.914062 L 12.019531 6.960938 C 12.023438 6.984375 12.03125 7.007812 12.042969 7.03125 L 12.070312 7.082031 C 12.074219 7.105469 12.078125 7.128906 12.089844 7.152344 L 12.117188 7.199219 C 12.121094 7.226562 12.128906 7.25 12.140625 7.273438 L 12.164062 7.320312 C 12.171875 7.347656 12.175781 7.371094 12.1875 7.394531 L 12.210938 7.4375 C 10.925781 8.324219 10.078125 9.804688 10.078125 11.484375 L 10.128906 11.484375 C 10.128906 11.523438 10.125 11.5625 10.125 11.605469 L 10.179688 11.605469 C 10.179688 11.644531 10.175781 11.683594 10.175781 11.722656 L 10.226562 11.722656 C 10.226562 11.765625 10.222656 11.804688 10.222656 11.84375 L 10.277344 11.84375 C 10.273438 11.878906 10.273438 11.917969 10.273438 11.953125 L 10.078125 11.953125 L 10.078125 13.835938 C 10.078125 13.832031 10.074219 13.828125 10.074219 13.828125 C 10.058594 13.785156 10.042969 13.746094 10.023438 13.707031 C 10.011719 13.664062 9.996094 13.625 9.976562 13.585938 C 9.960938 13.546875 9.945312 13.503906 9.929688 13.464844 C 9.914062 13.425781 9.898438 13.386719 9.878906 13.347656 C 9.863281 13.304688 9.851562 13.265625 9.832031 13.226562 C 9.816406 13.1875 9.800781 13.144531 9.78125 13.105469 C 9.769531 13.066406 9.753906 13.023438 9.734375 12.984375 C 9.71875 12.945312 9.703125 12.90625 9.683594 12.867188 C 9.671875 12.824219 9.65625 12.785156 9.636719 12.746094 C 9.621094 12.703125 9.605469 12.664062 9.589844 12.625 C 9.574219 12.585938 9.558594 12.546875 9.539062 12.507812 C 9.378906 12.046875 8.949219 11.71875 8.4375 11.71875 C 7.789062 11.71875 7.265625 12.242188 7.265625 12.890625 L 7.265625 17.578125 C 7.265625 17.757812 7.308594 17.929688 7.382812 18.082031 C 7.398438 18.125 7.414062 18.164062 7.433594 18.203125 C 7.445312 18.242188 7.460938 18.285156 7.480469 18.324219 C 7.496094 18.363281 7.511719 18.402344 7.53125 18.441406 C 7.542969 18.484375 7.558594 18.523438 7.578125 18.5625 C 7.59375 18.605469 7.609375 18.644531 7.625 18.683594 C 7.640625 18.722656 7.65625 18.761719 7.675781 18.800781 C 7.6875 18.84375 7.703125 18.882812 7.722656 18.921875 C 7.738281 18.964844 7.753906 19.003906 7.773438 19.042969 C 7.785156 19.085938 7.800781 19.125 7.820312 19.164062 C 7.835938 19.203125 7.851562 19.246094 7.867188 19.285156 C 7.882812 19.324219 7.898438 19.363281 7.917969 19.402344 C 7.933594 19.445312 7.949219 19.484375 7.964844 19.523438 C 7.980469 19.566406 7.996094 19.605469 8.015625 19.644531 C 8.027344 19.683594 8.042969 19.726562 8.0625 19.765625 C 8.078125 19.804688 8.09375 19.84375 8.113281 19.882812 C 8.125 19.925781 8.140625 19.964844 8.160156 20.003906 C 8.175781 20.046875 8.191406 20.085938 8.207031 20.125 C 8.222656 20.164062 8.238281 20.207031 8.257812 20.246094 C 8.273438 20.285156 8.285156 20.324219 8.304688 20.363281 C 8.320312 20.40625 8.335938 20.445312 8.355469 20.484375 C 8.367188 20.523438 8.382812 20.566406 8.402344 20.601562 C 8.417969 20.644531 8.433594 20.683594 8.449219 20.726562 C 8.464844 20.765625 8.480469 20.804688 8.5 20.84375 C 8.515625 20.886719 8.527344 20.925781 8.546875 20.964844 C 8.5625 21.007812 8.578125 21.046875 8.597656 21.085938 C 8.609375 21.125 8.625 21.164062 8.644531 21.203125 C 8.660156 21.246094 8.675781 21.285156 8.691406 21.324219 C 8.707031 21.367188 8.722656 21.40625 8.742188 21.445312 C 8.757812 21.488281 8.773438 21.527344 8.789062 21.566406 C 8.804688 21.605469 8.820312 21.648438 8.839844 21.6875 C 8.855469 21.726562 8.867188 21.765625 8.886719 21.804688 C 8.902344 21.847656 8.917969 21.886719 8.9375 21.925781 C 8.949219 21.96875 8.964844 22.007812 8.984375 22.046875 C 9 22.085938 9.015625 22.125 9.03125 22.164062 C 9.046875 22.207031 9.0625 22.246094 9.082031 22.285156 C 9.09375 22.328125 9.109375 22.367188 9.128906 22.40625 C 9.144531 22.445312 9.160156 22.488281 9.179688 22.527344 C 9.191406 22.566406 9.207031 22.609375 9.226562 22.648438 C 9.242188 22.6875 9.257812 22.726562 9.273438 22.765625 C 9.289062 22.808594 9.304688 22.847656 9.324219 22.886719 C 9.339844 22.929688 9.355469 22.96875 9.371094 23.007812 C 9.386719 23.046875 9.402344 23.089844 9.421875 23.128906 C 9.433594 23.167969 9.449219 23.207031 9.46875 23.246094 C 9.484375 23.289062 9.5 23.328125 9.519531 23.367188 C 9.53125 23.40625 9.546875 23.449219 9.566406 23.488281 C 9.582031 23.527344 9.597656 23.566406 9.613281 23.609375 C 9.628906 23.648438 9.644531 23.6875 9.664062 23.726562 C 9.679688 23.769531 9.691406 23.808594 9.710938 23.847656 C 9.726562 23.890625 9.742188 23.929688 9.761719 23.96875 C 9.773438 24.007812 9.789062 24.050781 9.808594 24.089844 C 9.824219 24.128906 9.839844 24.167969 9.855469 24.207031 C 9.871094 24.25 9.886719 24.289062 9.90625 24.328125 C 9.921875 24.371094 9.933594 24.410156 9.953125 24.449219 C 9.96875 24.488281 9.984375 24.527344 10.003906 24.566406 C 10.015625 24.609375 10.03125 24.648438 10.050781 24.6875 C 10.066406 24.730469 10.082031 24.769531 10.097656 24.808594 C 10.113281 24.851562 10.128906 24.890625 10.148438 24.929688 C 10.164062 24.96875 10.179688 25.007812 10.195312 25.046875 C 10.210938 25.089844 10.226562 25.128906 10.246094 25.167969 C 10.261719 25.210938 10.273438 25.25 10.292969 25.289062 C 10.308594 25.332031 10.324219 25.371094 10.34375 25.410156 C 10.355469 25.449219 10.371094 25.492188 10.390625 25.53125 C 10.40625 25.570312 10.421875 25.609375 10.4375 25.648438 C 10.453125 25.691406 10.46875 25.730469 10.488281 25.769531 C 10.503906 25.8125 10.519531 25.851562 10.535156 25.890625 C 10.550781 25.929688 10.566406 25.972656 10.585938 26.011719 C 10.597656 26.050781 10.613281 26.089844 10.632812 26.128906 C 10.648438 26.171875 10.664062 26.210938 10.679688 26.25 C 10.695312 26.292969 10.710938 26.332031 10.730469 26.371094 C 10.746094 26.410156 10.761719 26.453125 10.777344 26.492188 C 10.792969 26.53125 10.808594 26.570312 10.828125 26.609375 C 10.839844 26.652344 10.855469 26.691406 10.875 26.730469 C 10.890625 26.773438 10.90625 26.8125 10.925781 26.851562 C 10.9375 26.890625 10.953125 26.933594 10.972656 26.972656 C 10.988281 27.011719 11.003906 27.050781 11.019531 27.089844 C 11.035156 27.132812 11.050781 27.171875 11.070312 27.210938 C 11.085938 27.253906 11.097656 27.292969 11.117188 27.332031 C 11.132812 27.371094 11.148438 27.414062 11.167969 27.453125 C 11.179688 27.492188 11.195312 27.53125 11.214844 27.570312 C 11.230469 27.613281 11.246094 27.652344 11.261719 27.691406 C 11.277344 27.734375 11.292969 27.773438 11.3125 27.8125 C 11.328125 27.851562 11.339844 27.890625 11.359375 27.929688 C 11.375 27.972656 11.390625 28.011719 11.410156 28.050781 C 11.421875 28.09375 11.4375 28.132812 11.457031 28.171875 C 11.472656 28.214844 11.488281 28.253906 11.503906 28.292969 C 11.519531 28.332031 11.535156 28.375 11.554688 28.414062 C 11.570312 28.453125 11.585938 28.492188 11.601562 28.53125 C 11.617188 28.574219 11.632812 28.613281 11.652344 28.652344 C 11.667969 28.695312 11.679688 28.734375 11.699219 28.773438 C 11.714844 28.8125 11.730469 28.855469 11.75 28.894531 C 11.761719 28.933594 11.777344 28.972656 11.796875 29.011719 C 11.8125 29.054688 11.828125 29.09375 11.84375 29.132812 C 11.859375 29.175781 11.875 29.214844 11.894531 29.253906 C 11.910156 29.292969 11.925781 29.335938 11.941406 29.375 C 11.957031 29.414062 11.972656 29.453125 11.992188 29.492188 C 12.003906 29.535156 12.019531 29.574219 12.039062 29.613281 C 12.050781 29.648438 12.066406 29.683594 12.082031 29.71875 C 13.027344 29.898438 14 30 15 30 C 20.027344 30 24.476562 27.523438 27.199219 23.726562 Z M 27.199219 23.726562 "/>
<path style=" stroke:none;fill-rule:nonzero;fill:rgb(39.215686%,60%,21.568627%);fill-opacity:1;" d="M 10.078125 18.984375 C 10.078125 19.757812 10.710938 20.390625 11.484375 20.390625 L 11.953125 20.390625 L 11.953125 22.734375 C 11.953125 23.382812 12.476562 23.90625 13.125 23.90625 C 13.773438 23.90625 14.296875 23.382812 14.296875 22.734375 L 14.296875 20.390625 L 15.703125 20.390625 L 15.703125 22.734375 C 15.703125 23.382812 16.226562 23.90625 16.875 23.90625 C 17.523438 23.90625 18.046875 23.382812 18.046875 22.734375 L 18.046875 20.390625 L 18.515625 20.390625 C 19.289062 20.390625 19.921875 19.757812 19.921875 18.984375 L 19.921875 11.953125 L 10.078125 11.953125 Z M 10.078125 18.984375 "/>
<path style=" stroke:none;fill-rule:nonzero;fill:rgb(39.215686%,60%,21.568627%);fill-opacity:1;" d="M 21.5625 11.71875 C 20.914062 11.71875 20.390625 12.242188 20.390625 12.890625 L 20.390625 17.578125 C 20.390625 18.226562 20.914062 18.75 21.5625 18.75 C 22.210938 18.75 22.734375 18.226562 22.734375 17.578125 L 22.734375 12.890625 C 22.734375 12.242188 22.210938 11.71875 21.5625 11.71875 Z M 21.5625 11.71875 "/>
<path style=" stroke:none;fill-rule:nonzero;fill:rgb(39.215686%,60%,21.568627%);fill-opacity:1;" d="M 8.4375 11.71875 C 7.789062 11.71875 7.265625 12.242188 7.265625 12.890625 L 7.265625 17.578125 C 7.265625 18.226562 7.789062 18.75 8.4375 18.75 C 9.085938 18.75 9.609375 18.226562 9.609375 17.578125 L 9.609375 12.890625 C 9.609375 12.242188 9.085938 11.71875 8.4375 11.71875 Z M 8.4375 11.71875 "/>
<path style=" stroke:none;fill-rule:nonzero;fill:rgb(39.215686%,60%,21.568627%);fill-opacity:1;" d="M 17.664062 7.347656 L 18.296875 6.191406 C 18.359375 6.078125 18.316406 5.9375 18.203125 5.875 C 18.089844 5.8125 17.945312 5.851562 17.886719 5.964844 L 17.257812 7.113281 C 16.582031 6.761719 15.816406 6.5625 15 6.5625 C 14.183594 6.5625 13.417969 6.761719 12.742188 7.113281 L 12.113281 5.964844 C 12.050781 5.851562 11.910156 5.8125 11.796875 5.875 C 11.683594 5.9375 11.640625 6.078125 11.703125 6.191406 L 12.335938 7.347656 C 10.980469 8.226562 10.078125 9.75 10.078125 11.484375 L 19.921875 11.484375 C 19.921875 9.75 19.019531 8.226562 17.664062 7.347656 Z M 12.890625 9.84375 C 12.632812 9.84375 12.421875 9.632812 12.421875 9.375 C 12.421875 9.117188 12.632812 8.90625 12.890625 8.90625 C 13.148438 8.90625 13.359375 9.117188 13.359375 9.375 C 13.359375 9.632812 13.148438 9.84375 12.890625 9.84375 Z M 17.109375 9.84375 C 16.851562 9.84375 16.640625 9.632812 16.640625 9.375 C 16.640625 9.117188 16.851562 8.90625 17.109375 8.90625 C 17.367188 8.90625 17.578125 9.117188 17.578125 9.375 C 17.578125 9.632812 17.367188 9.84375 17.109375 9.84375 Z M 17.109375 9.84375 "/>
<path style=" stroke:none;fill-rule:nonzero;fill:rgb(36.078431%,54.901961%,19.607843%);fill-opacity:1;" d="M 15 20.390625 L 15.703125 20.390625 L 15.703125 22.734375 C 15.703125 23.382812 16.226562 23.90625 16.875 23.90625 C 17.523438 23.90625 18.046875 23.382812 18.046875 22.734375 L 18.046875 20.390625 L 18.515625 20.390625 C 19.289062 20.390625 19.921875 19.757812 19.921875 18.984375 L 19.921875 11.953125 L 15 11.953125 Z M 15 20.390625 "/>
<path style=" stroke:none;fill-rule:nonzero;fill:rgb(36.078431%,54.901961%,19.607843%);fill-opacity:1;" d="M 17.664062 7.347656 L 18.296875 6.191406 C 18.359375 6.078125 18.316406 5.9375 18.203125 5.875 C 18.089844 5.8125 17.945312 5.851562 17.886719 5.964844 L 17.257812 7.113281 C 16.582031 6.761719 15.816406 6.5625 15 6.5625 L 15 11.484375 L 19.921875 11.484375 C 19.921875 9.75 19.019531 8.226562 17.664062 7.347656 Z M 17.109375 9.84375 C 16.851562 9.84375 16.640625 9.632812 16.640625 9.375 C 16.640625 9.117188 16.851562 8.90625 17.109375 8.90625 C 17.367188 8.90625 17.578125 9.117188 17.578125 9.375 C 17.578125 9.632812 17.367188 9.84375 17.109375 9.84375 Z M 17.109375 9.84375 "/>
<path style=" stroke:none;fill-rule:nonzero;fill:rgb(36.078431%,54.901961%,19.607843%);fill-opacity:1;" d="M 21.5625 11.71875 C 20.914062 11.71875 20.390625 12.242188 20.390625 12.890625 L 20.390625 17.578125 C 20.390625 18.226562 20.914062 18.75 21.5625 18.75 C 22.210938 18.75 22.734375 18.226562 22.734375 17.578125 L 22.734375 12.890625 C 22.734375 12.242188 22.210938 11.71875 21.5625 11.71875 Z M 21.5625 11.71875 "/>
</g>
</svg>
