<?xml version="1.0" encoding="UTF-8"?>
<svg xmlns="http://www.w3.org/2000/svg" xmlns:xlink="http://www.w3.org/1999/xlink" width="24px" height="24px" viewBox="0 0 24 24" version="1.1">
<g id="surface1">
<path style=" stroke:none;fill-rule:nonzero;fill:rgb(76.078431%,98.431373%,23.137255%);fill-opacity:1;" d="M 23.679688 5.335938 L 20.59375 2.25 C 20.167969 1.820312 19.476562 1.820312 19.050781 2.25 L 8.035156 13.265625 L 4.949219 10.179688 C 4.742188 9.972656 4.464844 9.859375 4.175781 9.859375 C 3.886719 9.859375 3.609375 9.972656 3.40625 10.179688 L 0.320312 13.265625 C -0.105469 13.691406 -0.105469 14.382812 0.320312 14.808594 L 7.261719 21.75 C 7.46875 21.957031 7.746094 22.070312 8.035156 22.070312 C 8.324219 22.070312 8.601562 21.957031 8.804688 21.75 L 12 18.558594 L 23.679688 6.878906 C 23.886719 6.671875 24 6.394531 24 6.105469 C 24 5.816406 23.886719 5.539062 23.679688 5.335938 Z M 23.679688 5.335938 "/>
<path style=" stroke:none;fill-rule:nonzero;fill:rgb(61.176471%,86.666667%,1.960784%);fill-opacity:1;" d="M 7.261719 21.75 C 7.46875 21.957031 7.746094 22.070312 8.035156 22.070312 C 8.324219 22.070312 8.601562 21.957031 8.804688 21.75 L 12 18.558594 L 12 9.300781 L 8.035156 13.265625 L 4.949219 10.179688 C 4.742188 9.972656 4.464844 9.859375 4.175781 9.859375 C 3.886719 9.859375 3.609375 9.972656 3.40625 10.179688 L 0.320312 13.265625 C -0.105469 13.691406 -0.105469 14.382812 0.320312 14.808594 Z M 7.261719 21.75 "/>
</g>
</svg>
