<?xml version="1.0" encoding="UTF-8"?>
<svg xmlns="http://www.w3.org/2000/svg" xmlns:xlink="http://www.w3.org/1999/xlink" width="30px" height="30px" viewBox="0 0 30 30" version="1.1">
<g id="surface1">
<path style=" stroke:none;fill-rule:evenodd;fill:rgb(26.27451%,26.27451%,26.27451%);fill-opacity:1;" d="M 15.890625 22.226562 C 13.347656 22.226562 10.761719 20.714844 9.253906 18.714844 C 2.011719 18.714844 1.792969 29.054688 1.792969 29.054688 L 29.984375 29.054688 C 29.984375 29.054688 30.554688 18.667969 22.414062 18.667969 C 20.90625 20.691406 18.4375 22.226562 15.890625 22.226562 Z M 15.890625 22.226562 "/>
<path style=" stroke:none;fill-rule:evenodd;fill:rgb(26.27451%,26.27451%,26.27451%);fill-opacity:1;" d="M 21.953125 9.828125 C 21.953125 12.804688 19.238281 18.492188 15.886719 18.492188 C 12.539062 18.492188 9.820312 12.800781 9.820312 9.828125 C 9.820312 6.855469 12.535156 4.441406 15.886719 4.441406 C 19.238281 4.441406 21.953125 6.855469 21.953125 9.828125 Z M 21.953125 9.828125 "/>
<path style=" stroke:none;fill-rule:evenodd;fill:rgb(26.27451%,26.27451%,26.27451%);fill-opacity:1;" d="M 24.660156 7.261719 C 24.660156 6.703125 23.886719 6.253906 22.921875 6.25 L 22.921875 5.101562 C 22.921875 4.929688 22.988281 0.921875 15.90625 0.921875 C 8.832031 0.921875 8.894531 4.929688 8.894531 5.101562 L 8.894531 6.289062 C 8.878906 6.289062 8.863281 6.285156 8.847656 6.285156 C 7.890625 6.285156 7.117188 6.726562 7.117188 7.277344 L 7.117188 12.136719 C 7.117188 12.679688 7.890625 13.125 8.847656 13.125 C 9.804688 13.125 10.582031 12.679688 10.582031 12.136719 L 10.582031 7.277344 C 10.582031 7.199219 10.535156 7.132812 10.503906 7.0625 L 10.503906 5.734375 C 10.503906 5.613281 9.996094 2.589844 15.90625 2.589844 C 21.820312 2.589844 21.203125 5.613281 21.203125 5.734375 L 21.203125 7.132812 C 21.195312 7.175781 21.160156 7.214844 21.160156 7.261719 L 21.160156 12.230469 C 21.160156 12.789062 21.941406 13.242188 22.910156 13.242188 C 22.933594 13.242188 22.949219 13.238281 22.96875 13.238281 L 22.96875 15.054688 L 21.234375 15.054688 L 21.234375 16.765625 L 24.679688 16.765625 Z M 24.660156 7.261719 "/>
</g>
</svg>
