<?xml version="1.0" encoding="utf-8"?>
<!-- Generator: Adobe Illustrator 21.0.0, SVG Export Plug-In . SVG Version: 6.00 Build 0)  -->
<svg version="1.1" id="Layer_1" xmlns="http://www.w3.org/2000/svg" xmlns:xlink="http://www.w3.org/1999/xlink" x="0px" y="0px"
	 viewBox="0 0 18 18" style="enable-background:new 0 0 18 18;" xml:space="preserve">
<style type="text/css">
	.st0{fill:#E0C55E;}
	.st1{fill:none;}
</style>
<g>
	<path class="st0" d="M7.6,15.5l0.1-0.1L9,13.5c0-0.1,0.1-0.1,0.2-0.1h2.6c0.1,0,0.2,0,0.2,0.1c0.4,0.6,0.9,1.3,1.3,1.9
		c0,0,0,0.1,0.1,0.1H7.6z"/>
	<path class="st0" d="M6.1,9.7L6,4.9c0-0.5-0.3-0.9-0.8-1H5.1H1.2C1.1,4,1,4,0.9,4C0.5,4.1,0.2,4.5,0.2,4.9V12v0.2v2.4
		c0,0.5,0.3,0.8,0.8,0.9h0.9H5c0.6,0,1-0.4,1-1L6.1,9.7z M1.3,13.4c-0.2,0-0.4-0.2-0.4-0.4s0.2-0.4,0.4-0.4s0.4,0.1,0.4,0.3
		S1.6,13.3,1.3,13.4C1.4,13.4,1.3,13.4,1.3,13.4z M5.2,7.6H1.1c-0.2,0-0.2,0-0.2-0.3V7c0-0.2,0-0.2,0.2-0.2h4.1c0.2,0,0.2,0,0.2,0.2
		v0.4C5.3,7.5,5.3,7.6,5.2,7.6z M5.2,6.1H1.1C1,6.1,0.9,6.1,0.9,6V4.8c0-0.1,0.1-0.2,0.2-0.2h4.1c0.2,0,0.2,0,0.2,0.2v1.1
		C5.3,6.1,5.3,6.1,5.2,6.1z"/>
	<path class="st0" d="M16.8,2.5H4.2c-0.1,0-0.2,0-0.3,0c-0.4,0-0.6,0.3-0.7,0.7h13.7c0.2,0,0.2,0,0.2,0.2V10c0,0.3,0,0.3-0.3,0.3H7
		c-0.2,0-0.2,0-0.2,0.2v1.9c0,0.1,0,0.2,0.2,0.2h9.9h0.2c0.4-0.1,0.8-0.5,0.7-0.9V3.5C17.8,2.9,17.3,2.5,16.8,2.5z M10.5,11.9
		c-0.2,0-0.4-0.2-0.4-0.4s0.2-0.4,0.4-0.4s0.4,0.2,0.4,0.4C10.8,11.7,10.7,11.9,10.5,11.9z"/>
</g>
<path class="st1" d="M0,0h18v18H0V0z"/>
</svg>
