<?xml version="1.0" encoding="UTF-8"?>
<svg xmlns="http://www.w3.org/2000/svg" xmlns:xlink="http://www.w3.org/1999/xlink" width="30px" height="30px" viewBox="0 0 30 30" version="1.1">
<g id="surface1">
<path style=" stroke:none;fill-rule:nonzero;fill:rgb(0%,0%,0%);fill-opacity:1;" d="M 10.40625 9.09375 C 9.683594 9.09375 9.09375 9.683594 9.09375 10.40625 C 9.09375 11.128906 9.683594 11.71875 10.40625 11.71875 C 11.128906 11.71875 11.71875 11.128906 11.71875 10.40625 C 11.71875 9.683594 11.128906 9.09375 10.40625 9.09375 Z M 10.40625 9.09375 "/>
<path style=" stroke:none;fill-rule:nonzero;fill:rgb(0%,0%,0%);fill-opacity:1;" d="M 19.59375 18.28125 C 18.871094 18.28125 18.28125 18.871094 18.28125 19.59375 C 18.28125 20.316406 18.871094 20.90625 19.59375 20.90625 C 20.316406 20.90625 20.90625 20.316406 20.90625 19.59375 C 20.90625 18.871094 20.316406 18.28125 19.59375 18.28125 Z M 19.59375 18.28125 "/>
<path style=" stroke:none;fill-rule:nonzero;fill:rgb(0%,0%,0%);fill-opacity:1;" d="M 28.777344 15 C 29.578125 14.125 29.910156 12.910156 29.625 11.664062 C 29.339844 10.414062 28.511719 9.464844 27.414062 9.023438 C 27.753906 7.886719 27.523438 6.648438 26.726562 5.648438 C 25.929688 4.648438 24.769531 4.152344 23.589844 4.226562 C 23.402344 3.058594 22.660156 2.039062 21.507812 1.484375 C 20.359375 0.933594 19.097656 0.984375 18.066406 1.566406 C 17.390625 0.59375 16.277344 0 15 0 C 13.722656 0 12.609375 0.59375 11.933594 1.566406 C 10.902344 0.984375 9.644531 0.933594 8.492188 1.484375 C 7.339844 2.039062 6.597656 3.058594 6.410156 4.226562 C 5.230469 4.148438 4.070312 4.648438 3.273438 5.648438 C 2.476562 6.648438 2.246094 7.886719 2.585938 9.023438 C 1.488281 9.464844 0.660156 10.414062 0.375 11.660156 C 0.0898438 12.910156 0.421875 14.125 1.222656 15 C 0.421875 15.875 0.0898438 17.089844 0.375 18.339844 C 0.660156 19.585938 1.488281 20.535156 2.585938 20.976562 C 2.246094 22.113281 2.476562 23.351562 3.273438 24.351562 C 4.070312 25.351562 5.230469 25.847656 6.410156 25.773438 C 6.597656 26.941406 7.339844 27.960938 8.492188 28.515625 C 9.644531 29.070312 10.902344 29.015625 11.933594 28.433594 C 12.609375 29.40625 13.722656 30 15 30 C 16.277344 30 17.390625 29.40625 18.066406 28.433594 C 19.097656 29.015625 20.355469 29.066406 21.507812 28.515625 C 22.660156 27.960938 23.402344 26.941406 23.589844 25.773438 C 24.769531 25.84375 25.929688 25.351562 26.726562 24.351562 C 27.523438 23.351562 27.753906 22.113281 27.414062 20.976562 C 28.511719 20.535156 29.339844 19.585938 29.625 18.339844 C 29.910156 17.089844 29.578125 15.875 28.777344 15 Z M 7.125 10.40625 C 7.125 8.597656 8.597656 7.125 10.40625 7.125 C 12.214844 7.125 13.6875 8.597656 13.6875 10.40625 C 13.6875 12.214844 12.214844 13.6875 10.40625 13.6875 C 8.597656 13.6875 7.125 12.214844 7.125 10.40625 Z M 11.101562 20.289062 C 10.910156 20.484375 10.65625 20.578125 10.40625 20.578125 C 10.152344 20.578125 9.902344 20.484375 9.710938 20.289062 C 9.324219 19.90625 9.324219 19.28125 9.710938 18.898438 L 18.898438 9.710938 C 19.28125 9.324219 19.90625 9.324219 20.289062 9.710938 C 20.675781 10.09375 20.675781 10.71875 20.289062 11.101562 Z M 19.59375 22.875 C 17.785156 22.875 16.3125 21.402344 16.3125 19.59375 C 16.3125 17.785156 17.785156 16.3125 19.59375 16.3125 C 21.402344 16.3125 22.875 17.785156 22.875 19.59375 C 22.875 21.402344 21.402344 22.875 19.59375 22.875 Z M 19.59375 22.875 "/>
</g>
</svg>
