<?xml version="1.0" encoding="UTF-8"?>
<svg xmlns="http://www.w3.org/2000/svg" xmlns:xlink="http://www.w3.org/1999/xlink" width="30px" height="30px" viewBox="0 0 30 30" version="1.1">
<g id="surface1">
<path style=" stroke:none;fill-rule:nonzero;fill:rgb(100%,77.647059%,10.588235%);fill-opacity:1;" d="M 20.707031 24.292969 L 20.25 24.292969 C 19.777344 24.292969 19.394531 23.910156 19.394531 23.441406 C 19.394531 22.96875 19.777344 22.585938 20.25 22.585938 L 20.707031 22.585938 C 21.023438 22.585938 21.167969 22.445312 21.167969 22.125 L 21.167969 14.503906 C 21.167969 14.03125 21.546875 13.648438 22.019531 13.648438 C 22.492188 13.648438 22.875 14.03125 22.875 14.503906 L 22.875 22.125 C 22.875 23.382812 21.960938 24.292969 20.707031 24.292969 Z M 20.707031 24.292969 "/>
<path style=" stroke:none;fill-rule:nonzero;fill:rgb(99.607843%,88.235294%,52.941176%);fill-opacity:1;" d="M 22.019531 10.707031 L 22.019531 9.191406 C 22.019531 5.3125 18.878906 2.171875 15 2.171875 C 11.121094 2.171875 7.980469 5.3125 7.980469 9.191406 L 7.980469 10.707031 Z M 22.019531 10.707031 "/>
<path style=" stroke:none;fill-rule:nonzero;fill:rgb(100%,77.647059%,10.588235%);fill-opacity:1;" d="M 20.042969 3.148438 L 21.734375 1.457031 C 22.066406 1.125 22.066406 0.582031 21.734375 0.25 C 21.402344 -0.0820312 20.863281 -0.0820312 20.527344 0.25 L 18.589844 2.183594 C 17.515625 1.628906 16.292969 1.316406 15 1.316406 C 13.707031 1.316406 12.484375 1.628906 11.410156 2.183594 L 9.472656 0.25 C 9.136719 -0.0820312 8.597656 -0.0820312 8.265625 0.25 C 7.933594 0.582031 7.933594 1.125 8.265625 1.457031 L 9.957031 3.148438 C 8.226562 4.59375 7.125 6.765625 7.125 9.191406 L 7.125 10.707031 C 7.125 10.710938 7.125 10.710938 7.125 10.714844 L 7.125 22.125 C 7.125 23.246094 7.851562 24.09375 8.902344 24.261719 L 8.902344 27.179688 C 8.902344 28.707031 10.191406 30 11.71875 30 C 13.246094 30 14.539062 28.707031 14.539062 27.179688 L 14.539062 24.292969 L 15.460938 24.292969 L 15.460938 27.179688 C 15.460938 27.90625 15.765625 28.628906 16.300781 29.160156 C 16.832031 29.691406 17.554688 30 18.28125 30 C 19.808594 30 21.097656 28.707031 21.097656 27.179688 C 21.097656 26.707031 20.71875 26.324219 20.25 26.324219 C 19.777344 26.324219 19.394531 26.707031 19.394531 27.179688 C 19.394531 27.761719 18.863281 28.292969 18.28125 28.292969 C 18.003906 28.292969 17.722656 28.167969 17.503906 27.953125 C 17.289062 27.738281 17.167969 27.457031 17.167969 27.179688 L 17.167969 23.441406 C 17.167969 22.96875 16.785156 22.585938 16.3125 22.585938 L 13.6875 22.585938 C 13.214844 22.585938 12.832031 22.96875 12.832031 23.441406 L 12.832031 27.179688 C 12.832031 27.761719 12.300781 28.292969 11.71875 28.292969 C 11.136719 28.292969 10.605469 27.761719 10.605469 27.179688 L 10.605469 23.441406 C 10.605469 22.96875 10.222656 22.585938 9.75 22.585938 L 9.292969 22.585938 C 8.976562 22.585938 8.832031 22.445312 8.832031 22.125 L 8.832031 11.558594 L 22.019531 11.558594 C 22.492188 11.558594 22.875 11.175781 22.875 10.707031 L 22.875 9.191406 C 22.875 6.765625 21.773438 4.59375 20.042969 3.148438 Z M 21.167969 9.851562 L 8.832031 9.851562 L 8.832031 9.191406 C 8.832031 5.789062 11.597656 3.023438 15 3.023438 C 18.402344 3.023438 21.167969 5.789062 21.167969 9.191406 Z M 21.167969 9.851562 "/>
<path style=" stroke:none;fill-rule:nonzero;fill:rgb(99.607843%,88.235294%,52.941176%);fill-opacity:1;" d="M 4.292969 21.03125 C 3.472656 21.03125 2.8125 20.367188 2.8125 19.550781 L 2.8125 12.113281 C 2.8125 11.296875 3.472656 10.632812 4.292969 10.632812 C 5.109375 10.632812 5.773438 11.296875 5.773438 12.113281 L 5.773438 19.550781 C 5.773438 20.367188 5.109375 21.03125 4.292969 21.03125 Z M 4.292969 21.03125 "/>
<path style=" stroke:none;fill-rule:nonzero;fill:rgb(100%,77.647059%,10.588235%);fill-opacity:1;" d="M 4.292969 21.882812 C 3.003906 21.882812 1.957031 20.835938 1.957031 19.550781 L 1.957031 12.113281 C 1.957031 10.828125 3.003906 9.78125 4.292969 9.78125 C 5.578125 9.78125 6.625 10.828125 6.625 12.113281 L 6.625 19.550781 C 6.625 20.835938 5.578125 21.882812 4.292969 21.882812 Z M 4.292969 11.488281 C 3.945312 11.488281 3.664062 11.769531 3.664062 12.113281 L 3.664062 19.550781 C 3.664062 19.898438 3.945312 20.179688 4.292969 20.179688 C 4.636719 20.179688 4.917969 19.898438 4.917969 19.550781 L 4.917969 12.113281 C 4.917969 11.769531 4.636719 11.488281 4.292969 11.488281 Z M 4.292969 11.488281 "/>
<path style=" stroke:none;fill-rule:nonzero;fill:rgb(99.607843%,88.235294%,52.941176%);fill-opacity:1;" d="M 25.707031 21.03125 C 24.890625 21.03125 24.226562 20.367188 24.226562 19.550781 L 24.226562 12.113281 C 24.226562 11.296875 24.890625 10.632812 25.707031 10.632812 C 26.527344 10.632812 27.1875 11.296875 27.1875 12.113281 L 27.1875 19.550781 C 27.1875 20.367188 26.527344 21.03125 25.707031 21.03125 Z M 25.707031 21.03125 "/>
<path style=" stroke:none;fill-rule:nonzero;fill:rgb(100%,77.647059%,10.588235%);fill-opacity:1;" d="M 25.707031 21.882812 C 24.421875 21.882812 23.375 20.835938 23.375 19.550781 L 23.375 12.113281 C 23.375 10.828125 24.421875 9.78125 25.707031 9.78125 C 26.996094 9.78125 28.042969 10.828125 28.042969 12.113281 L 28.042969 19.550781 C 28.042969 20.835938 26.996094 21.882812 25.707031 21.882812 Z M 25.707031 11.488281 C 25.363281 11.488281 25.082031 11.769531 25.082031 12.113281 L 25.082031 19.550781 C 25.082031 19.898438 25.363281 20.179688 25.707031 20.179688 C 26.054688 20.179688 26.335938 19.898438 26.335938 19.550781 L 26.335938 12.113281 C 26.335938 11.769531 26.054688 11.488281 25.707031 11.488281 Z M 25.707031 11.488281 "/>
<path style=" stroke:none;fill-rule:nonzero;fill:rgb(100%,77.647059%,10.588235%);fill-opacity:1;" d="M 13.335938 6.609375 C 13.335938 7.007812 13.011719 7.335938 12.613281 7.335938 C 12.210938 7.335938 11.886719 7.007812 11.886719 6.609375 C 11.886719 6.207031 12.210938 5.882812 12.613281 5.882812 C 13.011719 5.882812 13.335938 6.207031 13.335938 6.609375 Z M 13.335938 6.609375 "/>
<path style=" stroke:none;fill-rule:nonzero;fill:rgb(100%,77.647059%,10.588235%);fill-opacity:1;" d="M 18.113281 6.609375 C 18.113281 7.007812 17.789062 7.335938 17.386719 7.335938 C 16.988281 7.335938 16.664062 7.007812 16.664062 6.609375 C 16.664062 6.207031 16.988281 5.882812 17.386719 5.882812 C 17.789062 5.882812 18.113281 6.207031 18.113281 6.609375 Z M 18.113281 6.609375 "/>
</g>
</svg>
