<?xml version="1.0" encoding="UTF-8"?>
<svg xmlns="http://www.w3.org/2000/svg" xmlns:xlink="http://www.w3.org/1999/xlink" width="30px" height="30px" viewBox="0 0 30 30" version="1.1">
<g id="surface1">
<path style=" stroke:none;fill-rule:nonzero;fill:rgb(0%,0%,0%);fill-opacity:1;" d="M 30 15.089844 C 30 6.808594 23.285156 0.0898438 15 0.0898438 C 6.714844 0.0898438 0 6.808594 0 15.089844 C 0 22.578125 5.484375 28.785156 12.65625 29.910156 L 12.65625 19.425781 L 8.847656 19.425781 L 8.847656 15.089844 L 12.65625 15.089844 L 12.65625 11.789062 C 12.65625 8.027344 14.894531 5.953125 18.324219 5.953125 C 19.960938 5.953125 21.679688 6.246094 21.679688 6.246094 L 21.679688 9.9375 L 19.789062 9.9375 C 17.921875 9.9375 17.34375 11.09375 17.34375 12.277344 L 17.34375 15.089844 L 21.503906 15.089844 L 20.835938 19.429688 L 17.34375 19.429688 L 17.34375 29.910156 C 24.515625 28.785156 30 22.578125 30 15.089844 Z M 30 15.089844 "/>
</g>
</svg>
