
<svg enable-background="new 0 0 512 409.6" viewBox="0 0 512 409.6" xmlns="http://www.w3.org/2000/svg"><path d="m506.6 161.8-242.7-159.5c-4.7-3.1-11-3.1-15.7 0l-242.8 159.5c-5.9 3.9-7.2 11.4-2.9 16.7s12.7 6.5 18.6 2.6l35.3-23.2v239.8c0 6.6 6 11.9 13.3 11.9h133c7 0 12.7-4.8 13.3-11 0-.3.1-.6.1-.9v-115.7c0-19.7 17.9-35.8 39.9-35.8s39.9 16.1 39.9 35.8v115.7c0 .3 0 .6.1.9.5 6.2 6.3 11 13.2 11h133c7.3 0 13.3-5.3 13.3-11.9v-239.8l35.3 23.2c2.4 1.6 5.1 2.3 7.8 2.3 4.1 0 8.1-1.7 10.7-4.9 4.5-5.4 3.2-12.8-2.7-16.7zm-317.1 120.2c0-27.9 21.4-51.4 50.3-57.9-28.9 6.5-50.3 30-50.3 57.9zm-106.6-141.6 173.1-113.7zm346 245.3h-106.4 106.4l.1-245.3z" fill="#bda270"/></svg>