<?xml version="1.0" encoding="UTF-8"?>
<svg xmlns="http://www.w3.org/2000/svg" xmlns:xlink="http://www.w3.org/1999/xlink" width="30px" height="30px" viewBox="0 0 30 30" version="1.1">
<g id="surface1">
<path style=" stroke:none;fill-rule:nonzero;fill:rgb(0%,0%,0%);fill-opacity:1;" d="M 29.472656 11.792969 L 25.71875 8.734375 L 25.71875 3.839844 C 25.71875 3.289062 25.269531 2.839844 24.71875 2.839844 L 22.359375 2.839844 C 21.808594 2.839844 21.359375 3.289062 21.359375 3.839844 L 21.359375 5.179688 L 16.34375 1.089844 C 15.980469 0.796875 15.503906 0.632812 14.996094 0.632812 C 14.492188 0.632812 14.015625 0.792969 13.65625 1.089844 L 0.527344 11.792969 C -0.0703125 12.277344 -0.0351562 12.703125 0.0390625 12.910156 C 0.113281 13.121094 0.355469 13.46875 1.121094 13.46875 L 2.917969 13.46875 L 2.917969 27.546875 C 2.917969 28.550781 3.734375 29.367188 4.734375 29.367188 L 10.414062 29.367188 C 11.40625 29.367188 12.183594 28.566406 12.183594 27.546875 L 12.183594 21.773438 C 12.183594 21.277344 12.636719 20.828125 13.136719 20.828125 L 16.953125 20.828125 C 17.429688 20.828125 17.816406 21.253906 17.816406 21.773438 L 17.816406 27.546875 C 17.816406 28.53125 18.667969 29.367188 19.679688 29.367188 L 25.265625 29.367188 C 26.265625 29.367188 27.082031 28.550781 27.082031 27.546875 L 27.082031 13.46875 L 28.878906 13.46875 C 29.644531 13.46875 29.886719 13.121094 29.960938 12.910156 C 30.035156 12.703125 30.070312 12.277344 29.472656 11.792969 Z M 29.472656 11.792969 "/>
</g>
</svg>
