<svg height="18" viewBox="0 0 18 18" width="18" xmlns="http://www.w3.org/2000/svg"><g fill="#e0c55e"><path d="m11.88 7.86c-.15.24-.29.47-.45.71l-.43-.67a1.59 1.59 0 0 0 .88-.04z"/><path d="m17.8 2.62c-.05-.31-.28-.42-.54-.48l-3.05-.77-3.91-.98a.54.54 0 0 0 -.74.41v.08c-.4 1.6-.81 3.19-1.22 4.78-.05.18-.05.18.12.26a6.49 6.49 0 0 1 1.54 1.08l.14.12v-.23a1.65 1.65 0 0 1 .86-1.48c.64-.41 1.3-.76 2-1.14.1-.06.16 0 .21.06l.3.48.85 1.39a1.66 1.66 0 0 1 0 1.73 1 1 0 0 1 -.69.53 1.26 1.26 0 0 1 -1.13-.36 1.31 1.31 0 0 0 -.13-.1c0 .44.08.88.12 1.34l-.75-.18a.45.45 0 0 0 0 .08 7 7 0 0 1 .66 3.27c0 .11 0 .15.14.18l1.91.48a.63.63 0 0 0 .83-.49l2.43-9.68a1.18 1.18 0 0 0 .05-.38zm-7.17.38a.24.24 0 0 1 -.25.08h-.06c-.07.2-.11.21-.27.09 0 0 0-.08 0-.13l-.05-.04a.22.22 0 0 1 -.1-.37 2.2 2.2 0 0 1 .43-.3s.1 0 .11 0 .14.25.21.38a.22.22 0 0 1 -.02.29zm0-1a.12.12 0 0 0 -.14-.11c-.06 0-.15 0-.17 0s-.1.14-.3.06l.18-.23.35-.45c.07-.09.14-.08.16 0 .06.29.1.57.15.87-.21.06-.21.06-.22-.14zm4.12 9.6-.49.63a.16.16 0 0 1 -.09.05s0-.05 0-.08c-.05-.27-.09-.55-.12-.83s.21 0 .19.17.07.12.14.12a.26.26 0 0 0 .18 0c.1-.14.1-.14.28-.08a.56.56 0 0 1 -.08.04zm0-.59-.23.15c-.07.06-.13 0-.18 0a3.65 3.65 0 0 1 -.18-.34.23.23 0 0 1 .2-.36c.11 0 .17 0 .18-.17l.23.06-.06.15c.38.17.39.3.08.5z"/><path d="m5.93 6.18a5.73 5.73 0 1 0 5.74 5.74 5.75 5.75 0 0 0 -5.74-5.74zm3.9 4a.29.29 0 0 1 0 .31l-.6 1.48a.27.27 0 0 1 -.26.18l-1.64.13a.29.29 0 0 1 -.28-.11c-.41-.55-.82-1.1-1.22-1.66a.31.31 0 0 1 0-.25c.2-.54.42-1.07.63-1.6a.22.22 0 0 1 .22-.15h.78l.66-.06c.64 0 .48 0 .82.45s.59.81.89 1.24zm-3 2.45c-.25.57-.5 1.15-.74 1.72a.23.23 0 0 1 -.2.15c-.66.06-1.32.13-2 .18a.24.24 0 0 1 -.17-.09c-.35-.52-.7-1-1-1.57a.3.3 0 0 1 0-.21c.24-.59.48-1.19.73-1.78a.3.3 0 0 1 .2-.15l1.79-.26s.12.05.16.11c.42.55.83 1.11 1.24 1.67a.2.2 0 0 1 0 .19zm-2-5.41c.06-.14.09-.28.14-.43a.2.2 0 0 1 .2-.17l.83-.11a5.3 5.3 0 0 1 2.49.66 1.23 1.23 0 0 1 .29.27s0 .09 0 .13-.07.23-.1.34a.21.21 0 0 1 -.22.17h-.76c-.33 0-.66 0-1 0a1.39 1.39 0 0 1 -.5-.08c-.42-.19-.83-.41-1.25-.6a.18.18 0 0 1 -.1-.22zm-.2-.5c0 .13-.08.22-.1.32a.82.82 0 0 1 -.36.53c-.42.29-.82.6-1.22.92a1.2 1.2 0 0 1 -.67.27c-.23 0-.46 0-.69.08a5.42 5.42 0 0 1 3.06-2.16zm-2.46 6.07-1.06.21c-.06 0-.11 0-.11 0-.15-.51-.27-1-.4-1.45 0 0 0-.08 0-.15s0-.17.07-.27c.23-.58.47-1.17.7-1.76a.28.28 0 0 1 .24-.2l.89-.12a.14.14 0 0 1 .18.1c.16.49.33 1 .49 1.45a.36.36 0 0 1 0 .18l-.75 1.83a.27.27 0 0 1 -.25.18zm.45 3.37c.22-.12.72.19.77.5zm4.22.84-1.63.18a1 1 0 0 1 -.76-.18c-.3-.24-.59-.47-.89-.69a.21.21 0 0 1 -.09-.31c.11-.3.22-.6.32-.89a.21.21 0 0 1 .21-.11l2-.18s0 0 0 0a2.24 2.24 0 0 1 .27.13c.43.3.85.62 1.27.93.08.05.1.1 0 .19l-.5.87a.26.26 0 0 1 -.2.06zm3.3-1.77a6.47 6.47 0 0 1 -2 1.59 2.37 2.37 0 0 1 -.53.18.51.51 0 0 1 -.18 0 1.47 1.47 0 0 1 .07-.17l.33-.6a1.78 1.78 0 0 1 .51-.55c.41-.31.83-.61 1.24-.93a.63.63 0 0 1 .56-.15 3.62 3.62 0 0 0 .44.06c-.19.26-.3.44-.44.61zm.68-1.07c-.08.18-.11.19-.3.17l-.52-.03a.15.15 0 0 1 -.15-.14c-.12-.57-.24-1.14-.34-1.71a.65.65 0 0 1 0-.34c.18-.49.39-1 .58-1.48.07-.16.11-.18.28-.15h.44a.24.24 0 0 1 .23.17 3 3 0 0 1 .3 1.35 5.72 5.72 0 0 1 -.52 2.2z"/><path d="m4.21 5.4c-.31-.69-.63-1.4-.94-2.06a.34.34 0 0 0 -.27-.22l-1.22-.12-1.13-.07c0 .06 0 .1.06.13l1.09 1.87a.36.36 0 0 0 .27.18l1.55.32.67.12zm-1.82-.56s-.11.08-.18.13a1.43 1.43 0 0 1 -.27-.19.23.23 0 0 1 0-.2.2.2 0 0 1 .18 0 .83.83 0 0 1 .23.15.17.17 0 0 1 .04.11zm.3-.62s-.09.07-.16.12a2.16 2.16 0 0 1 -.29-.21s0-.13 0-.17a.15.15 0 0 1 .21-.06 1.06 1.06 0 0 1 .21.16.19.19 0 0 1 .03.16zm.31-.62s-.1.08-.17.12a1.27 1.27 0 0 1 -.26-.15c-.07-.07-.11-.16 0-.24s.16-.11.25 0 .11.07.15.12.03.1.03.15z"/><path d="m5.78 3.25c-.17-.54-.33-1.08-.5-1.62-.06-.17-.11-.34-.17-.52 0 0-.05 0-.06 0l-1.47 1.75a.31.31 0 0 0 0 .37l1 2.09a.64.64 0 0 0 .06.11l.1-.15 1-1.7a.35.35 0 0 0 .04-.33zm-1.51 0a.25.25 0 0 1 -.17.11c-.1.03-.1-.15-.1-.21a.93.93 0 0 1 .1-.2c0-.05.12-.11.15-.1s.08.1.11.14a2 2 0 0 1 -.09.28zm.51 1.47a.1.1 0 0 1 -.19 0 .39.39 0 0 1 .18-.48.34.34 0 0 1 .01.5zm.1-1.22c-.07 0-.13 0-.17 0a1.67 1.67 0 0 1 0-.19c0-.08.08-.18.13-.27s.07-.04.16-.04a.45.45 0 0 1 -.12.52zm.12-1.23a.15.15 0 0 1 -.11 0s-.07-.1-.1-.13 0-.22.07-.31a.18.18 0 0 1 .14-.08s.08.05.11.08a.38.38 0 0 1 -.11.44zm.53 1.3a.19.19 0 0 1 -.14.06.36.36 0 0 1 -.09-.21.27.27 0 0 1 .08-.2c0-.05.11-.12.15-.1s.09.1.13.16a2.73 2.73 0 0 1 -.13.29z"/><path d="m4.66.93-2.05.07a.4.4 0 0 0 -.31.13l-1.43 1.33-.16.12h.15l.86.07 1.28.17a.36.36 0 0 0 .36-.12l1.1-1.29c.12-.15.25-.31.4-.48zm-2.18 1a.52.52 0 0 1 .57-.28.48.48 0 0 1 -.57.29z"/><path d="m10.64 1.78h-.2l.15-.23z"/><path d="m14.23 12a1 1 0 0 1 0-.17.1.1 0 0 1 0-.07.13.13 0 0 1 .08 0s0 0 0 .07-.07.1-.1.16z"/></g><path d="m0 0h18v18h-18z" fill="none"/></svg>