<svg height="18" viewBox="0 0 18 18" width="18" xmlns="http://www.w3.org/2000/svg"><path d="m9 .2a8.8 8.8 0 1 1 -8.8 8.74 8.82 8.82 0 0 1 8.8-8.74zm-2.93 5.44a15.27 15.27 0 0 0 -.32 2.85h6.5a15.39 15.39 0 0 0 -.33-2.86 45.67 45.67 0 0 1 -5.85.01zm6.18 3.87h-6.49a12.48 12.48 0 0 0 .33 2.85 47.41 47.41 0 0 1 5.84 0 15.27 15.27 0 0 0 .32-2.85zm-.57-4.85a6.64 6.64 0 0 0 -.63-1.66 4.14 4.14 0 0 0 -1-1.42 1.6 1.6 0 0 0 -.93-.42 1.61 1.61 0 0 0 -1.26.57 6 6 0 0 0 -1.37 2.36c-.06.18-.11.36-.18.57a43.73 43.73 0 0 0 5.37 0zm0 8.68a43.57 43.57 0 0 0 -5.36 0 .49.49 0 0 0 0 .15 7.07 7.07 0 0 0 1 2.11 3.9 3.9 0 0 0 .74.83 1.38 1.38 0 0 0 2-.07 6.45 6.45 0 0 0 1.63-3.02zm-6.62-7.76-2.78-.35a.19.19 0 0 0 -.15.08 7.43 7.43 0 0 0 -.91 3.18h3.52c0-.49.07-1 .12-1.45s.14-.97.2-1.46zm0 6.86c-.11-1-.22-2-.33-2.93h-3.51v.06a7.85 7.85 0 0 0 .87 3.07.22.22 0 0 0 .27.13l1.64-.22zm7.94-6.88c.11 1 .22 2 .32 2.93h3.5a7.9 7.9 0 0 0 -.86-3.11.22.22 0 0 0 -.29-.15l-1.34.18zm3.83 4h-3.5c-.11 1-.22 2-.33 2.93h.11l2.63.32a.22.22 0 0 0 .18-.1 7.59 7.59 0 0 0 .91-3.17zm-5.49-8 .26.38a8.69 8.69 0 0 1 1.06 2.44c.05.18.12.23.3.21.42-.06.83-.09 1.25-.13l1.06-.14a7.8 7.8 0 0 0 -3.97-2.78zm-4.64 14.9-.26-.38a9.14 9.14 0 0 1 -1.07-2.46c0-.15-.08-.21-.26-.19-.43.06-.87.09-1.3.13l-1 .14a7.78 7.78 0 0 0 3.89 2.76zm4.67 0a7.75 7.75 0 0 0 3.84-2.72h-.06l-2.36-.26a.2.2 0 0 0 -.13.11c-.14.39-.24.8-.41 1.18-.25.54-.59 1.11-.88 1.67zm-4.74-14.9a7.77 7.77 0 0 0 -3.84 2.71s0 0 0 0l2.37.27s.11-.07.13-.12c.14-.41.25-.83.42-1.22.29-.54.63-1.08.92-1.64z" fill="#e0c55e"/><path d="m0 0h18v18h-18z" fill="none"/></svg>