<svg xmlns="http://www.w3.org/2000/svg" width="17" height="17"><title>Shape</title><desc>Created with Sketch.</desc><g fill="none"><g fill="#ba9e57"><g><g><g><path d="M.95 5.65h3.1v10.8H.95V5.65zM2.42 4.3H2.4C1.27 4.3.55 3.47.55 2.42c0-1.06.74-1.87 1.9-1.87 1.13 0 1.84.8 1.86 1.87 0 1.05-.72 1.88-1.88 1.88zm14.03 12.15h-3.5v-5.6c0-1.45-.56-2.45-1.77-2.45-.93 0-1.44.67-1.68 1.32-.1.24-.08.56-.08.9v5.83H5.94s.05-9.9 0-10.8h3.48v1.7c.2-.75 1.32-1.8 3.1-1.8 2.2 0 3.93 1.55 3.93 4.9v6z"/></g></g></g></g></g></svg>