<?xml version="1.0" encoding="UTF-8"?>
<svg xmlns="http://www.w3.org/2000/svg" xmlns:xlink="http://www.w3.org/1999/xlink" width="30px" height="30px" viewBox="0 0 30 30" version="1.1">
<g id="surface1">
<path style=" stroke:none;fill-rule:nonzero;fill:rgb(0%,0%,0%);fill-opacity:1;" d="M 22.457031 0.0117188 L 7.519531 0.0117188 C 3.378906 0.0117188 0 3.390625 0 7.53125 L 0 22.492188 C 0 26.609375 3.378906 29.988281 7.519531 29.988281 L 22.480469 29.988281 C 26.621094 29.988281 30 26.609375 30 22.46875 L 30 7.53125 C 29.976562 3.390625 26.597656 0.0117188 22.457031 0.0117188 Z M 9.992188 24.277344 L 5.710938 24.277344 L 5.710938 11.90625 L 9.992188 11.90625 Z M 7.828125 10.003906 C 6.613281 10.003906 5.636719 9.027344 5.636719 7.816406 C 5.636719 6.601562 6.613281 5.625 7.828125 5.625 C 9.039062 5.625 10.015625 6.601562 10.015625 7.816406 C 9.992188 9.027344 9.015625 10.003906 7.828125 10.003906 Z M 24.289062 24.277344 L 20.699219 24.277344 L 20.699219 18.28125 C 20.699219 16.832031 20.507812 14.976562 18.53125 14.976562 C 16.511719 14.976562 16.175781 16.546875 16.175781 18.1875 L 16.175781 24.277344 L 12.609375 24.277344 L 12.609375 11.90625 L 15.941406 11.90625 L 15.941406 13.574219 L 16.035156 13.574219 C 16.558594 12.621094 17.773438 11.882812 19.675781 11.882812 C 23.601562 11.882812 24.289062 14.144531 24.289062 17.496094 Z M 24.289062 24.277344 "/>
</g>
</svg>
