<svg enable-background="new 0 0 48 48" fill="#fff" viewBox="0 0 48 48" xmlns="http://www.w3.org/2000/svg"><path d="m24 4.2c-12.5 0-22.6 8.2-22.6 18.4 0 4.4 1.9 8.4 5 11.5-1.1 4.4-4.8 8.4-4.8 8.5-.2.2-.2.5-.1.8s.4.4.6.4c5.9 0 10.2-2.8 12.4-4.5 2.9 1.1 6.1 1.7 9.5 1.7 12.5 0 22.6-8.2 22.6-18.4s-10.1-18.4-22.6-18.4zm-11.3 21.2c-1.6 0-2.8-1.3-2.8-2.8s1.3-2.8 2.8-2.8 2.8 1.3 2.8 2.8c0 1.6-1.2 2.8-2.8 2.8zm11.3 0c-1.6 0-2.8-1.3-2.8-2.8s1.3-2.8 2.8-2.8c1.6 0 2.8 1.3 2.8 2.8 0 1.6-1.2 2.8-2.8 2.8zm11.3 0c-1.6 0-2.8-1.3-2.8-2.8s1.3-2.8 2.8-2.8 2.8 1.3 2.8 2.8c0 1.6-1.2 2.8-2.8 2.8z"/></svg>