<?xml version="1.0" encoding="UTF-8"?>
<svg xmlns="http://www.w3.org/2000/svg" xmlns:xlink="http://www.w3.org/1999/xlink" width="30px" height="30px" viewBox="0 0 30 30" version="1.1">
<g id="surface1">
<path style=" stroke:none;fill-rule:nonzero;fill:rgb(0%,0%,0%);fill-opacity:1;" d="M 15 0 C 6.714844 0 0 6.714844 0 15 C 0 23.28125 6.714844 29.996094 15 29.996094 C 23.28125 29.996094 29.996094 23.28125 29.996094 15 C 29.996094 6.714844 23.28125 0 15 0 Z M 15 28.886719 C 7.464844 28.886719 1.332031 22.757812 1.332031 15.222656 C 1.332031 7.6875 7.464844 1.558594 15 1.558594 C 22.535156 1.558594 28.664062 7.6875 28.664062 15.222656 C 28.664062 22.757812 22.535156 28.886719 15 28.886719 Z M 15 28.886719 "/>
<path style=" stroke:none;fill-rule:nonzero;fill:rgb(0%,0%,0%);fill-opacity:1;" d="M 15 3.558594 C 8.960938 3.558594 3.980469 8.167969 3.390625 14.050781 L 14.527344 14.050781 L 13.671875 13.195312 C 13.25 12.773438 13.25 12.089844 13.671875 11.667969 C 14.09375 11.246094 14.777344 11.246094 15.199219 11.667969 L 17.902344 14.367188 C 17.902344 14.367188 17.902344 14.371094 17.902344 14.371094 L 18.664062 15.132812 L 17.902344 15.898438 L 15.378906 18.417969 C 15.167969 18.632812 14.890625 18.738281 14.613281 18.738281 C 14.339844 18.738281 14.0625 18.632812 13.851562 18.417969 C 13.429688 17.996094 13.429688 17.3125 13.851562 16.890625 L 14.527344 16.214844 L 3.382812 16.214844 C 3.890625 22.183594 8.902344 26.886719 15 26.886719 C 21.429688 26.886719 26.664062 21.65625 26.664062 15.222656 C 26.664062 8.792969 21.429688 3.558594 15 3.558594 Z M 15 3.558594 "/>
</g>
</svg>
