<?xml version="1.0" encoding="UTF-8"?>
<svg xmlns="http://www.w3.org/2000/svg" xmlns:xlink="http://www.w3.org/1999/xlink" width="30px" height="30px" viewBox="0 0 30 30" version="1.1">
<g id="surface1">
<path style=" stroke:none;fill-rule:nonzero;fill:rgb(100%,19.215686%,19.215686%);fill-opacity:1;" d="M 11.179688 21.542969 L 9.011719 21.542969 C 8.75 21.542969 8.589844 21.398438 8.519531 21.308594 C 8.394531 21.160156 8.347656 20.964844 8.390625 20.78125 C 9.027344 17.746094 11.722656 15.527344 14.84375 15.453125 L 15.164062 15.453125 C 15.921875 15.46875 16.667969 15.613281 17.378906 15.878906 C 17.695312 15.992188 18.050781 15.835938 18.167969 15.519531 C 18.28125 15.203125 18.125 14.851562 17.804688 14.734375 C 17.699219 14.699219 17.601562 14.664062 17.496094 14.628906 C 18.511719 13.875 19.171875 12.671875 19.171875 11.320312 C 19.171875 9.042969 17.296875 7.191406 15.003906 7.191406 C 12.707031 7.191406 10.835938 9.050781 10.835938 11.320312 C 10.835938 12.675781 11.492188 13.875 12.519531 14.636719 C 11.585938 14.9375 10.707031 15.414062 9.945312 16.035156 C 8.539062 17.175781 7.566406 18.777344 7.203125 20.527344 C 7.089844 21.078125 7.226562 21.640625 7.582031 22.074219 C 7.9375 22.507812 8.464844 22.757812 9.023438 22.757812 L 11.191406 22.757812 C 11.53125 22.757812 11.808594 22.484375 11.808594 22.148438 C 11.800781 21.816406 11.519531 21.542969 11.179688 21.542969 Z M 12.054688 11.320312 C 12.054688 9.714844 13.378906 8.402344 15 8.402344 C 16.621094 8.402344 17.945312 9.714844 17.945312 11.320312 C 17.945312 12.886719 16.699219 14.164062 15.144531 14.234375 C 15.097656 14.234375 15.050781 14.234375 15 14.234375 C 14.949219 14.234375 14.902344 14.234375 14.855469 14.234375 C 13.300781 14.164062 12.054688 12.886719 12.054688 11.320312 Z M 12.054688 11.320312 "/>
<path style=" stroke:none;fill-rule:nonzero;fill:rgb(100%,19.215686%,19.215686%);fill-opacity:1;" d="M 18.347656 22.152344 C 18.347656 22.488281 18.621094 22.761719 18.960938 22.761719 L 21.128906 22.761719 C 21.6875 22.761719 22.214844 22.511719 22.570312 22.078125 C 22.925781 21.640625 23.0625 21.082031 22.949219 20.53125 C 22.585938 18.78125 21.609375 17.179688 20.207031 16.039062 C 19.445312 15.414062 18.570312 14.9375 17.636719 14.640625 C 18.65625 13.878906 19.316406 12.683594 19.316406 11.324219 C 19.316406 9.050781 17.441406 7.191406 15.148438 7.191406 C 12.851562 7.191406 10.980469 9.042969 10.980469 11.324219 C 10.980469 12.675781 11.636719 13.878906 12.65625 14.632812 C 12.550781 14.667969 12.453125 14.703125 12.347656 14.738281 C 12.03125 14.851562 11.871094 15.203125 11.988281 15.523438 C 12.101562 15.835938 12.457031 15.996094 12.773438 15.882812 C 13.484375 15.617188 14.226562 15.472656 14.988281 15.457031 L 15.308594 15.457031 C 18.425781 15.53125 21.128906 17.746094 21.765625 20.785156 C 21.796875 20.96875 21.757812 21.164062 21.636719 21.3125 C 21.5625 21.402344 21.402344 21.546875 21.140625 21.546875 L 18.972656 21.546875 C 18.628906 21.542969 18.347656 21.816406 18.347656 22.152344 Z M 15.289062 14.234375 C 15.242188 14.234375 15.195312 14.234375 15.144531 14.234375 C 15.097656 14.234375 15.050781 14.234375 15 14.234375 C 13.445312 14.164062 12.199219 12.886719 12.199219 11.320312 C 12.199219 9.714844 13.523438 8.402344 15.144531 8.402344 C 16.765625 8.402344 18.089844 9.714844 18.089844 11.320312 C 18.089844 12.886719 16.847656 14.164062 15.289062 14.234375 Z M 15.289062 14.234375 "/>
<path style=" stroke:none;fill-rule:nonzero;fill:rgb(100%,19.215686%,19.215686%);fill-opacity:1;" d="M 15 4.082031 C 8.609375 4.082031 3.40625 9.234375 3.40625 15.578125 C 3.40625 21.917969 8.601562 27.078125 15 27.078125 C 21.390625 27.078125 26.59375 21.925781 26.59375 15.578125 C 26.59375 9.234375 21.390625 4.082031 15 4.082031 Z M 14.984375 25.941406 C 9.191406 25.941406 4.492188 21.285156 4.492188 15.535156 C 4.492188 9.789062 9.191406 5.128906 14.984375 5.128906 C 20.777344 5.128906 25.476562 9.785156 25.476562 15.535156 C 25.476562 21.285156 20.785156 25.941406 14.984375 25.941406 Z M 14.984375 25.941406 "/>
</g>
</svg>
