<svg enable-background="new 0 0 612 792" viewBox="0 0 612 792" xmlns="http://www.w3.org/2000/svg"><g fill="#f5d556"><path d="m206 568.7h-56.8c-6.8 0-11-3.8-12.9-6.1-3.2-4-4.4-9.1-3.4-14 16.7-80.1 87.3-138.7 169-140.6h4.2 4.2c19.9.4 39.4 4.2 58 11.2 8.3 3 17.6-1.1 20.6-9.5 3-8.3-1.1-17.6-9.5-20.7-2.7-.9-5.3-1.9-8-2.8 26.5-19.9 43.8-51.7 43.8-87.3 0-60.2-49.1-109.1-109.1-109.1-60.1 0-109.1 49.1-109.1 109.1 0 35.8 17.2 67.4 44 87.5-24.4 8-47.4 20.5-67.3 36.9-36.8 30.1-62.3 72.4-71.8 118.6-3 14.6.6 29.4 9.9 40.9 9.3 11.4 23.1 18 37.7 18h56.8c8.9 0 16.1-7.2 16.1-16.1-.1-8.8-7.5-16-16.4-16zm22.9-269.8c0-42.4 34.7-77.1 77.1-77.1s77.1 34.7 77.1 77.1c0 41.3-32.6 75-73.3 76.9-1.3 0-2.5 0-3.8 0s-2.5 0-3.8 0c-40.7-1.9-73.3-35.6-73.3-76.9z"/><path d="m393.6 584.8c0 8.9 7.2 16.1 16.1 16.1h56.8c14.6 0 28.4-6.6 37.7-18 9.3-11.6 12.9-26.3 9.9-40.9-9.5-46.2-35-88.5-71.8-118.6-19.9-16.5-42.8-29-67.3-36.9 26.7-20.1 44-51.7 44-87.5 0-60.1-49.1-109.1-109.1-109.1-60.1 0-109.1 48.9-109.1 109.1 0 35.6 17.2 67.4 43.8 87.3-2.7.9-5.3 1.9-8 2.8-8.3 3-12.5 12.3-9.5 20.7 3 8.3 12.3 12.5 20.6 9.5 18.6-7 38.1-10.8 58-11.2h4.2 4.2c81.6 1.9 152.3 60.4 169 140.6.9 4.9-.2 10-3.4 14-1.9 2.3-6.1 6.1-12.9 6.1h-56.8c-9-.1-16.4 7.1-16.4 16zm-80-209c-1.3 0-2.5 0-3.8 0s-2.5 0-3.8 0c-40.7-1.9-73.3-35.6-73.3-76.9 0-42.4 34.7-77.1 77.1-77.1s77.1 34.7 77.1 77.1c0 41.3-32.5 75-73.3 76.9z"/><path d="m306 107.8c-167.3 0-303.5 136-303.5 303.5 0 167.3 136 303.5 303.5 303.5 167.3 0 303.5-136 303.5-303.5s-136.2-303.5-303.5-303.5zm-.4 577c-151.7 0-274.7-122.9-274.7-274.7 0-151.7 123-274.7 274.7-274.7s274.7 122.9 274.7 274.7-122.9 274.7-274.7 274.7z"/></g></svg>