<?xml version="1.0" encoding="utf-8"?>
<svg viewBox="0 0 20 20" style="enable-background:new 0 0 18 18;" xmlns="http://www.w3.org/2000/svg">
  <defs>
    <style type="text/css">
	.st0{fill:none;}
	.st1{fill:#f5d556;}
</style>
  </defs>
  <path class="st0" d="M 1 1 L 19 1 L 19 19 L 1 19 L 1 1 Z"/>
  <path class="st1" d="M 2.9 18.4 C 2.6 18.3 2.3 18.2 2.1 17.8 C 2 17.7 2 17.5 2 17.3 C 2 15.9 2 14.5 2 13.1 C 2 13.1 2 13.1 2 13 L 4.1 13 L 4.1 16.2 L 15.9 16.2 L 15.9 13 L 18 13 L 18 17.1 C 18 17.9 17.8 18.1 17.1 18.4 L 2.9 18.4 Z"/>
  <path class="st1" d="M 8.4 8.7 L 8.4 8.5 C 8.4 6.3 8.4 4.1 8.4 1.9 C 8.4 1.4 8.6 1.2 9.1 1.2 C 9.8 1.2 10.4 1.2 11.1 1.2 C 11.5 1.2 11.7 1.4 11.7 1.8 C 11.7 4 11.7 6.3 11.7 8.5 C 11.7 8.6 11.7 8.6 11.7 8.7 L 11.9 8.7 C 12.5 8.7 13.1 8.7 13.8 8.7 C 14.1 8.7 14.3 8.8 14.4 9 C 14.5 9.2 14.4 9.4 14.3 9.6 C 13.1 11 11.8 12.4 10.6 13.8 C 10.3 14.1 10 14.1 9.7 13.8 C 8.5 12.4 7.2 11 6 9.6 C 5.7 9.5 5.7 9.3 5.8 9 C 5.9 8.8 6.1 8.7 6.4 8.7 C 7 8.7 7.7 8.7 8.4 8.7 Z"/>
</svg>