<?xml version="1.0" encoding="UTF-8"?>
<svg xmlns="http://www.w3.org/2000/svg" xmlns:xlink="http://www.w3.org/1999/xlink" width="30px" height="30px" viewBox="0 0 30 30" version="1.1">
<g id="surface1">
<path style=" stroke:none;fill-rule:evenodd;fill:rgb(26.27451%,26.27451%,26.27451%);fill-opacity:1;" d="M 19.214844 21.488281 C 18.003906 23.410156 16.609375 18.621094 15.089844 18.621094 C 13.523438 18.621094 12.066406 23.324219 10.800781 21.355469 C 9.710938 19.65625 8.769531 17.828125 8.027344 16.882812 C 0.328125 16.882812 0.171875 28.070312 0.171875 28.070312 L 30.15625 28.070312 C 30.15625 28.070312 30.6875 16.835938 22.027344 16.835938 C 21.265625 17.816406 20.316406 19.746094 19.214844 21.488281 Z M 19.214844 21.488281 "/>
<path style=" stroke:none;fill-rule:evenodd;fill:rgb(26.27451%,26.27451%,26.27451%);fill-opacity:1;" d="M 14.980469 16.875 C 12.175781 16.875 9.40625 9.0625 9.40625 5.847656 C 9.40625 2.628906 12.175781 0.0195312 14.980469 0.0195312 C 17.785156 0.0195312 20.550781 2.628906 20.550781 5.847656 C 20.550781 9.0625 17.785156 16.875 14.980469 16.875 Z M 14.980469 16.875 "/>
</g>
</svg>
