<?xml version="1.0" encoding="UTF-8"?>
<svg xmlns="http://www.w3.org/2000/svg" xmlns:xlink="http://www.w3.org/1999/xlink" width="30px" height="30px" viewBox="0 0 30 30" version="1.1">
<g id="surface1">
<path style=" stroke:none;fill-rule:evenodd;fill:rgb(0.392157%,0.392157%,0.392157%);fill-opacity:1;" d="M 3 0 L 27 0 C 28.65625 0 30 1.34375 30 3 L 30 27 C 30 28.65625 28.65625 30 27 30 L 3 30 C 1.34375 30 0 28.65625 0 27 L 0 3 C 0 1.34375 1.34375 0 3 0 Z M 3 0 "/>
<path style=" stroke:none;fill-rule:evenodd;fill:rgb(93.333333%,11.372549%,31.764706%);fill-opacity:1;" d="M 18.835938 27.601562 C 19.75 27.601562 20.492188 26.867188 20.492188 25.960938 C 20.492188 25.054688 19.75 24.320312 18.835938 24.320312 L 18.589844 24.320312 C 19.5 24.320312 20.242188 25.054688 20.242188 25.960938 C 20.242188 26.867188 19.5 27.601562 18.589844 27.601562 Z M 18.835938 27.601562 "/>
<path style=" stroke:none;fill-rule:evenodd;fill:rgb(40%,78.431373%,81.176471%);fill-opacity:1;" d="M 18.566406 24.320312 L 18.316406 24.320312 C 17.402344 24.320312 16.664062 25.054688 16.664062 25.960938 C 16.664062 26.867188 17.402344 27.601562 18.316406 27.601562 L 18.566406 27.601562 C 17.652344 27.601562 16.914062 26.867188 16.914062 25.960938 C 16.914062 25.054688 17.652344 24.320312 18.566406 24.320312 Z M 18.566406 24.320312 "/>
<path style=" stroke:none;fill-rule:evenodd;fill:rgb(0.392157%,0.392157%,0.392157%);fill-opacity:1;" d="M 19.382812 25.960938 C 19.382812 25.519531 19.019531 25.164062 18.578125 25.164062 C 18.132812 25.164062 17.773438 25.519531 17.773438 25.960938 C 17.773438 26.402344 18.132812 26.757812 18.578125 26.757812 C 19.019531 26.757812 19.382812 26.402344 19.382812 25.960938 Z M 19.382812 25.960938 "/>
<path style=" stroke:none;fill-rule:evenodd;fill:rgb(100%,100%,100%);fill-opacity:1;" d="M 6 23.578125 L 6 24.410156 L 6.972656 24.410156 L 6.972656 27.578125 L 7.945312 27.578125 L 7.945312 24.433594 L 8.738281 24.433594 L 9.011719 23.578125 Z M 13.96875 23.578125 L 13.96875 24.410156 L 14.941406 24.410156 L 14.941406 27.578125 L 15.917969 27.578125 L 15.917969 24.433594 L 16.710938 24.433594 L 16.980469 23.578125 Z M 9.191406 24.050781 C 9.191406 23.792969 9.40625 23.578125 9.667969 23.578125 C 9.929688 23.578125 10.144531 23.792969 10.144531 24.050781 C 10.144531 24.3125 9.929688 24.523438 9.667969 24.523438 C 9.40625 24.523438 9.191406 24.3125 9.191406 24.050781 Z M 9.191406 24.859375 L 10.144531 24.859375 L 10.144531 27.578125 L 9.191406 27.578125 Z M 10.550781 23.578125 L 10.550781 27.578125 L 11.5 27.578125 L 11.5 26.542969 L 11.796875 26.273438 L 12.722656 27.601562 L 13.742188 27.601562 L 12.40625 25.667969 L 13.605469 24.5 L 12.453125 24.5 L 11.5 25.445312 L 11.5 23.578125 Z M 20.808594 23.578125 L 20.808594 27.578125 L 21.757812 27.578125 L 21.757812 26.542969 L 22.050781 26.273438 L 22.980469 27.601562 L 24 27.601562 L 22.664062 25.667969 L 23.863281 24.5 L 22.710938 24.5 L 21.757812 25.445312 L 21.757812 23.578125 Z M 20.808594 23.578125 "/>
<path style=" stroke:none;fill-rule:evenodd;fill:rgb(93.333333%,11.372549%,32.156863%);fill-opacity:1;" d="M 19.339844 9.742188 C 20.652344 10.679688 22.261719 11.234375 24 11.234375 L 24 7.890625 C 23.671875 7.890625 23.34375 7.855469 23.019531 7.789062 L 23.019531 10.417969 C 21.285156 10.417969 19.675781 9.867188 18.363281 8.929688 L 18.363281 15.75 C 18.363281 19.160156 15.59375 21.925781 12.179688 21.925781 C 10.90625 21.925781 9.722656 21.542969 8.738281 20.882812 C 9.863281 22.027344 11.425781 22.738281 13.160156 22.738281 C 16.574219 22.738281 19.339844 19.972656 19.339844 16.5625 Z M 20.546875 6.371094 C 19.875 5.636719 19.433594 4.691406 19.339844 3.644531 L 19.339844 3.214844 L 18.414062 3.214844 C 18.644531 4.542969 19.441406 5.679688 20.546875 6.371094 Z M 10.898438 18.261719 C 10.523438 17.773438 10.320312 17.171875 10.324219 16.550781 C 10.324219 14.992188 11.589844 13.726562 13.148438 13.726562 C 13.441406 13.726562 13.730469 13.769531 14.007812 13.859375 L 14.007812 10.441406 C 13.683594 10.398438 13.355469 10.378906 13.027344 10.386719 L 13.027344 13.046875 C 12.75 12.957031 12.460938 12.914062 12.171875 12.914062 C 10.609375 12.914062 9.34375 14.179688 9.34375 15.738281 C 9.34375 16.84375 9.976562 17.796875 10.898438 18.261719 Z M 10.898438 18.261719 "/>
<path style=" stroke:none;fill-rule:evenodd;fill:rgb(100%,100%,100%);fill-opacity:1;" d="M 18.363281 8.929688 C 19.675781 9.867188 21.285156 10.417969 23.019531 10.417969 L 23.019531 7.789062 C 22.050781 7.582031 21.191406 7.074219 20.546875 6.371094 C 19.441406 5.679688 18.644531 4.542969 18.414062 3.214844 L 15.976562 3.214844 L 15.976562 16.5625 C 15.972656 18.117188 14.707031 19.378906 13.148438 19.378906 C 12.230469 19.378906 11.414062 18.941406 10.898438 18.261719 C 9.976562 17.796875 9.34375 16.84375 9.34375 15.738281 C 9.34375 14.179688 10.609375 12.914062 12.171875 12.914062 C 12.46875 12.914062 12.757812 12.960938 13.027344 13.046875 L 13.027344 10.386719 C 9.675781 10.457031 6.976562 13.195312 6.976562 16.5625 C 6.976562 18.242188 7.648438 19.769531 8.738281 20.882812 C 9.722656 21.542969 10.90625 21.925781 12.179688 21.925781 C 15.59375 21.925781 18.363281 19.160156 18.363281 15.75 Z M 18.363281 8.929688 "/>
<path style=" stroke:none;fill-rule:evenodd;fill:rgb(41.176471%,78.823529%,81.568627%);fill-opacity:1;" d="M 23.019531 7.789062 L 23.019531 7.078125 C 22.148438 7.078125 21.289062 6.832031 20.546875 6.371094 C 21.203125 7.089844 22.070312 7.585938 23.019531 7.789062 Z M 18.414062 3.214844 C 18.390625 3.085938 18.375 2.957031 18.363281 2.828125 L 18.363281 2.398438 L 15 2.398438 L 15 15.75 C 14.992188 17.304688 13.730469 18.566406 12.171875 18.566406 C 11.714844 18.566406 11.28125 18.457031 10.898438 18.261719 C 11.414062 18.941406 12.230469 19.378906 13.148438 19.378906 C 14.707031 19.378906 15.972656 18.117188 15.976562 16.5625 L 15.976562 3.214844 Z M 13.027344 10.386719 L 13.027344 9.628906 C 12.746094 9.589844 12.464844 9.570312 12.179688 9.570312 C 8.765625 9.570312 6 12.335938 6 15.75 C 6 17.886719 7.085938 19.773438 8.738281 20.882812 C 7.648438 19.769531 6.980469 18.242188 6.980469 16.5625 C 6.980469 13.195312 9.675781 10.457031 13.027344 10.386719 Z M 13.027344 10.386719 "/>
<path style=" stroke:none;fill-rule:evenodd;fill:rgb(100%,100%,100%);fill-opacity:1;" d="M 18.589844 27.601562 C 19.5 27.601562 20.242188 26.867188 20.242188 25.960938 C 20.242188 25.054688 19.5 24.320312 18.589844 24.320312 L 18.566406 24.320312 C 17.652344 24.320312 16.914062 25.054688 16.914062 25.960938 C 16.914062 26.867188 17.652344 27.601562 18.566406 27.601562 Z M 17.773438 25.960938 C 17.773438 25.519531 18.132812 25.164062 18.578125 25.164062 C 19.019531 25.164062 19.382812 25.519531 19.382812 25.960938 C 19.382812 26.402344 19.019531 26.757812 18.578125 26.757812 C 18.132812 26.757812 17.773438 26.402344 17.773438 25.960938 Z M 17.773438 25.960938 "/>
</g>
</svg>
