<?xml version="1.0" encoding="UTF-8"?>
<svg xmlns="http://www.w3.org/2000/svg" xmlns:xlink="http://www.w3.org/1999/xlink" width="30px" height="30px" viewBox="0 0 30 30" version="1.1">
<g id="surface1">
<path style=" stroke:none;fill-rule:nonzero;fill:rgb(0%,0%,0%);fill-opacity:1;" d="M 22.476562 0 L 7.5 0 C 3.382812 0 0 3.382812 0 7.523438 L 0 22.5 C 0 26.617188 3.382812 30 7.5 30 L 22.476562 30 C 26.617188 30 30 26.617188 30 22.476562 L 30 7.523438 C 30 3.382812 26.617188 0 22.476562 0 Z M 19.285156 24.355469 C 18.617188 24.355469 14.953125 24.261719 14 24.261719 C 13.070312 24.261719 8.167969 22.761719 8.167969 17.429688 C 8.167969 16.476562 8.167969 15.523438 8.167969 14.570312 C 8.167969 13.691406 8.144531 12.808594 8.144531 11.929688 C 8.144531 11.667969 8.144531 11.429688 8.144531 11.167969 C 8.144531 9.832031 8.023438 8.308594 8.453125 7.023438 C 8.785156 6.046875 9.570312 5.691406 10.546875 5.691406 C 12.90625 5.691406 13.046875 8.09375 13.070312 10.476562 L 19.882812 10.476562 C 20.953125 10.476562 21.761719 11.570312 21.761719 13.214844 C 21.761719 14.855469 20.023438 15.238281 19.117188 15.238281 L 13 15.238281 C 12.976562 16.191406 12.929688 17.070312 12.929688 17.570312 C 12.929688 18.617188 13.332031 19.761719 15.929688 19.761719 L 19.570312 19.761719 C 20.476562 19.761719 21.832031 20.40625 21.832031 22.308594 C 21.855469 24.214844 19.953125 24.355469 19.285156 24.355469 Z M 19.285156 24.355469 "/>
</g>
</svg>
