<?xml version="1.0" encoding="UTF-8"?>
<svg xmlns="http://www.w3.org/2000/svg" xmlns:xlink="http://www.w3.org/1999/xlink" width="30px" height="30px" viewBox="0 0 30 30" version="1.1">
<g id="surface1">
<path style=" stroke:none;fill-rule:nonzero;fill:rgb(0%,0%,0%);fill-opacity:1;" d="M 15.9375 0 C 8.15625 0 1.875 6.28125 1.875 14.0625 C 1.875 17.25 2.90625 20.25 4.875 22.6875 L 2.90625 28.6875 C 2.8125 29.0625 2.90625 29.4375 3.1875 29.71875 C 3.28125 29.90625 3.5625 30 3.75 30 C 3.84375 30 4.03125 30 4.125 29.90625 L 10.59375 27 C 12.28125 27.75 14.0625 28.125 15.9375 28.125 C 23.71875 28.125 30 21.84375 30 14.0625 C 30 6.28125 23.71875 0 15.9375 0 Z M 24.09375 19.21875 C 23.71875 20.34375 22.3125 21.28125 21.09375 21.46875 C 20.8125 21.5625 20.53125 21.5625 20.15625 21.5625 C 19.40625 21.5625 18.28125 21.375 16.3125 20.53125 C 14.0625 19.59375 11.8125 17.625 10.03125 15.09375 L 10.03125 15 C 9.46875 14.15625 8.4375 12.5625 8.4375 10.875 C 8.4375 8.8125 9.46875 7.78125 9.84375 7.3125 C 10.3125 6.84375 10.96875 6.5625 11.71875 6.5625 C 11.90625 6.5625 12 6.5625 12.1875 6.5625 C 12.84375 6.5625 13.3125 6.75 13.78125 7.6875 L 14.15625 8.4375 C 14.4375 9.1875 14.8125 10.03125 14.90625 10.125 C 15.1875 10.6875 15.1875 11.15625 14.90625 11.625 C 14.8125 11.90625 14.625 12.09375 14.4375 12.28125 C 14.34375 12.46875 14.25 12.5625 14.15625 12.5625 C 14.0625 12.65625 14.0625 12.65625 13.96875 12.75 C 14.25 13.21875 14.8125 14.0625 15.5625 14.71875 C 16.6875 15.75 17.53125 16.03125 18 16.21875 C 18.1875 16.03125 18.375 15.65625 18.65625 15.375 L 18.75 15.1875 C 19.21875 14.53125 19.96875 14.34375 20.71875 14.625 C 21.09375 14.8125 23.15625 15.75 23.15625 15.75 L 23.34375 15.84375 C 23.625 16.03125 24 16.125 24.1875 16.5 C 24.5625 17.34375 24.28125 18.5625 24.09375 19.21875 Z M 24.09375 19.21875 "/>
</g>
</svg>
